<svg width="27" height="27" viewBox="0 0 27 27" fill="none" xmlns="http://www.w3.org/2000/svg">
<path d="M7.94433 4.20994C8.07887 4.35022 8.07887 4.57233 7.94433 4.70677C7.8154 4.84121 7.60238 4.84121 7.46784 4.70677L5.74688 2.8831V2.95324C5.74688 3.14613 5.59552 3.30395 5.41053 3.30395C5.22554 3.30395 5.07419 3.14613 5.07419 2.95324V2.01802C5.09101 1.81344 5.24236 1.67901 5.43856 1.6907L6.1617 1.69654C6.57092 1.69654 6.61577 2.32781 6.21215 2.39211L7.94433 4.20994ZM7.73131 10.6337C7.9163 10.6337 8.06766 10.7915 8.06766 10.9844C8.06766 11.1773 7.9163 11.3351 7.73131 11.3351L5.276 11.3176L5.32645 11.3702C5.46099 11.5105 5.46099 11.7326 5.32645 11.867C5.19752 12.0015 4.9845 12.0015 4.84996 11.867L4.21651 11.2007C4.08758 11.0429 4.1044 10.8383 4.25014 10.698L4.76587 10.1603C4.90041 10.0258 5.11343 10.0258 5.24236 10.1603C5.36008 10.283 5.37129 10.4759 5.276 10.6162L7.73131 10.6337ZM19.7781 11.604C19.5931 11.604 19.4417 11.4462 19.4417 11.2533C19.4417 11.0604 19.5931 10.9026 19.7781 10.9026L22.2334 10.9201L22.1829 10.8675C22.054 10.7331 22.054 10.511 22.1829 10.3707C22.3175 10.2304 22.5305 10.2304 22.6594 10.3707L23.2929 11.037C23.4218 11.1948 23.405 11.3994 23.2592 11.5397L22.7435 12.0774C22.6146 12.2177 22.4015 12.2119 22.2726 12.0774C22.1549 11.9547 22.1437 11.7618 22.239 11.6215L19.7781 11.604ZM20.4844 4.62494C20.3498 4.76522 20.1368 4.76522 20.0079 4.62494C19.8733 4.4905 19.8733 4.26839 20.0079 4.12811L21.7569 2.33366H21.6896C21.5046 2.33366 21.3533 2.17584 21.3533 1.98295C21.3533 1.79006 21.5046 1.63225 21.6896 1.63225H22.5865C22.7827 1.64978 22.9117 1.8076 22.9004 2.01218L22.8948 2.7662C22.8948 3.19289 22.2894 3.23965 22.2278 2.8188L20.4844 4.62494ZM14.3293 0.223575L14.7105 1.24647L15.7251 1.31661C16.0278 1.33415 16.1567 1.73161 15.9101 1.94204L15.1253 2.64345L15.3831 3.71895C15.456 4.02289 15.1309 4.28008 14.8618 4.08719L14.0153 3.50852L13.1521 4.09303C12.8998 4.26254 12.5747 4.02289 12.6419 3.7131L12.8998 2.6376L12.1094 1.93035C11.8796 1.72577 12.0085 1.33415 12.3056 1.31661L13.3258 1.24647L13.7014 0.223575C13.8135 -0.0745251 14.2228 -0.0745251 14.3293 0.223575ZM14.1611 1.70823L14.0153 1.32246L13.8808 1.68485C13.8416 1.81929 13.7238 1.9245 13.5781 1.93619L13.1689 1.96542C13.7014 2.43887 13.6678 2.32781 13.4996 3.02923C14.0546 2.64929 13.9649 2.64929 14.5255 3.02923C14.3573 2.32781 14.3237 2.43887 14.8562 1.96542L14.447 1.93619C14.3293 1.9245 14.2115 1.84267 14.1611 1.70823ZM12.9054 14.2635H15.1309V12.1534H12.9054V14.2635ZM12.3056 14.8305C12.2607 14.772 12.2327 14.6961 12.2327 14.6142V11.8086C12.2327 11.6157 12.3841 11.4579 12.5691 11.4579H15.4672C15.6522 11.4579 15.8036 11.6157 15.8036 11.8086V14.6142C15.8036 14.6961 15.7756 14.772 15.7307 14.8305H18.0907V9.78617C17.6703 9.82708 17.2667 9.65173 16.9976 9.33609C16.4707 9.94398 15.5569 9.93814 15.0356 9.3244C14.5087 9.94398 13.5781 9.93814 13.0568 9.31271C12.5298 9.94398 11.5881 9.93814 11.0667 9.30687C10.792 9.63419 10.3828 9.82124 9.95118 9.78032V14.8246H12.3056V14.8305ZM17.973 9.0906C18.3262 9.0906 18.6233 8.78665 18.6233 8.41257V7.41305H17.3396V8.41257C17.3396 8.45348 17.3396 8.4944 17.3339 8.53531C17.3564 8.66975 17.4236 8.7925 17.5133 8.88602C17.6311 9.01461 17.7936 9.0906 17.973 9.0906ZM18.9092 9.38285C18.8643 9.42962 18.8139 9.47638 18.7634 9.51145V14.8246H19.0213C19.2063 14.8246 19.3576 14.9825 19.3576 15.1754V16.9873C19.3576 17.1802 19.2063 17.338 19.0213 17.338H9.00942C8.82443 17.338 8.67308 17.1802 8.67308 16.9873V15.1754C8.67308 14.9825 8.82443 14.8246 9.00942 14.8246H9.26728V9.51145C8.94215 9.25426 8.73474 8.85095 8.73474 8.40672V7.20263C8.70671 7.15002 8.68989 7.09157 8.68989 7.02728V5.24452C8.68989 5.05163 8.84125 4.89381 9.02624 4.89381H19.0045C19.1894 4.89381 19.3408 5.05163 19.3408 5.24452V7.02728C19.3408 7.09157 19.324 7.15002 19.296 7.20263V8.40672C19.296 8.7925 19.1502 9.13736 18.9092 9.38285ZM16.6557 8.53531C16.65 8.4944 16.65 8.45348 16.65 8.41257V7.41305H15.3663V8.41257C15.3663 8.99708 16.0614 9.3244 16.4763 8.88602C16.5716 8.7925 16.6332 8.66975 16.6557 8.53531ZM14.6992 8.41257V7.41305H13.3987V8.41257C13.3987 9.00292 14.0938 9.3244 14.5087 8.89187C14.6208 8.76912 14.6936 8.59961 14.6992 8.41257ZM12.0589 9.0906C12.4177 9.0906 12.7092 8.78665 12.7092 8.41257V7.41305H11.4087V8.41257C11.4087 8.78081 11.7002 9.0906 12.0589 9.0906ZM10.0577 9.0906C10.4165 9.0906 10.708 8.78665 10.708 8.41257V7.41305H9.40743V8.41257C9.41303 8.78665 9.70453 9.0906 10.0577 9.0906ZM9.34577 16.6425H18.6849V15.5319H9.34577V16.6425ZM9.36819 6.68242H18.6737V5.60107H9.36819V6.68242ZM3.79047 18.4194H6.18973C6.62698 18.4194 6.98014 18.7935 6.98014 19.2435V19.4715C10.6183 17.3322 9.1832 18.6181 12.6083 18.7526C13.3595 18.7818 14.1667 18.7935 14.8786 18.9045C15.9157 19.0682 16.7397 19.4364 16.835 20.3132L19.0998 19.9859L21.7905 17.9752C22.3062 17.5485 22.85 17.5076 23.2704 17.7063C23.6516 17.8875 23.9151 18.2499 23.9824 18.6824C24.0664 19.2143 23.859 19.8631 23.1639 20.4184L18.7914 23.9196C18.7634 23.943 18.7298 23.9605 18.6961 23.9722L13.2978 25.907C13.2418 25.9245 13.1857 25.9303 13.1352 25.9187L8.14614 25.4452L6.98014 25.5212V26.1758C6.98014 26.6318 6.62698 27 6.18973 27H3.79047C3.35323 27 3.00006 26.6318 3.00006 26.1758V19.2435C2.99446 18.7876 3.35323 18.4194 3.79047 18.4194ZM6.18413 19.1208H3.79047C3.72321 19.1208 3.66715 19.1792 3.66715 19.2435V26.1758C3.66715 26.246 3.72321 26.3044 3.79047 26.3044H6.18973C6.257 26.3044 6.31306 26.246 6.31306 26.1758V19.2435C6.30745 19.1734 6.25139 19.1208 6.18413 19.1208ZM16.1455 20.6464C16.1511 20.623 16.1623 20.6055 16.168 20.5821C16.2016 19.98 15.5793 19.7228 14.7833 19.6001C14.0938 19.4949 13.3034 19.4832 12.5915 19.454C8.95336 19.3137 10.764 18.0453 6.98575 20.2781V24.8198L8.13492 24.7496C8.15174 24.7496 8.16856 24.7496 8.18538 24.7496L13.1521 25.2231L18.4383 23.3293L22.7659 19.8631C23.2929 19.4423 23.4947 18.8987 23.22 18.5246C23.1639 18.4486 23.091 18.3843 23.007 18.3492C22.7995 18.2499 22.5137 18.2791 22.2222 18.5188C22.2109 18.5304 22.1997 18.5421 22.1829 18.548L19.4305 20.6055C19.3856 20.6347 19.3352 20.6581 19.2791 20.6698L16.7229 21.038C16.3585 21.8388 15.2206 21.9206 13.4211 22.0434C13.0119 22.0726 12.5691 22.1018 12.0533 22.1486C11.8683 22.1661 11.7058 22.02 11.689 21.8271C11.6721 21.6342 11.8123 21.4647 11.9973 21.4472C12.4682 21.4062 12.9447 21.3712 13.3819 21.3419C15.0188 21.2309 16.011 21.1607 16.1455 20.6464Z" fill="#3579F4"/>
</svg>
