<svg width="27" height="27" viewBox="0 0 27 27" fill="none" xmlns="http://www.w3.org/2000/svg">
<g clip-path="url(#clip0_376_260)">
<path d="M17.715 0C16.0613 0 14.3203 0.500918 12.7902 1.64752C9.62435 4.01998 8.65551 8.31832 10.3921 11.8112H4.54199C3.5255 11.8112 2.72413 12.6259 2.72413 13.6246V14.99H0.454686C-0.151267 14.99 -0.151267 15.8985 0.454686 15.8985H2.72413V17.7164H1.81564C1.21143 17.7164 1.21143 18.6249 1.81564 18.6249H2.72413V20.4383H0.454686C-0.151562 20.4383 -0.151562 21.3477 0.454686 21.3477H2.72413V24.0731C2.72413 24.3257 2.92755 24.53 3.18015 24.53H5.49661C5.70913 25.5622 6.61038 26.3434 7.7208 26.3434C8.83122 26.3434 9.73449 25.5622 9.94766 24.53H19.5773C19.7904 25.5622 20.7024 26.3434 21.8041 26.3434C22.9058 26.3434 23.8149 25.5622 24.0274 24.53C24.0274 24.53 25.2701 24.53 25.8914 24.53C26.1665 24.53 26.3457 24.2997 26.3457 24.0731C26.3457 22.4078 26.3457 20.7426 26.3457 19.0773C26.3457 16.5037 24.7368 14.99 22.7126 14.99C21.3502 14.99 18.6253 14.99 18.6253 14.99C18.6253 14.99 18.6253 14.0798 18.6253 13.6246C18.6253 12.6133 17.8062 11.8112 16.8074 11.8112C15.0129 11.8112 11.4239 11.8112 11.4239 11.8112C10.8442 10.8082 10.529 9.71999 10.4613 8.62885H10.9032C11.5082 8.62885 11.5082 7.72035 10.9032 7.72035H10.4658C10.5958 5.66957 11.5858 3.69646 13.3367 2.37502C14.5138 1.48668 15.8806 1.01332 17.2599 0.927119V1.36273C17.2599 1.96897 18.1693 1.96897 18.1693 1.36273V0.926227C19.9467 1.03748 21.6811 1.79406 22.9912 3.17616C24.2053 4.45701 24.8615 6.07349 24.9643 7.72035H24.5305C23.9254 7.72035 23.9254 8.62885 24.5305 8.62885H24.9696C24.8917 9.87377 24.4896 11.1028 23.7675 12.1892L23.3097 10.8317C23.1163 10.2584 22.2531 10.5491 22.4473 11.1236L23.1872 13.3123C23.2777 13.5798 23.5345 13.6535 23.709 13.6185L25.982 13.1625C26.5759 13.0434 26.3885 12.1575 25.8009 12.2734L24.6538 12.4997C26.6006 9.38588 26.239 5.28354 23.6477 2.54979C21.7079 0.5311 19.3688 1.71682e-08 17.715 0ZM17.2599 4.31354V8.17638C17.2599 8.33862 17.3483 8.48743 17.4888 8.56852L20.0315 10.0359C20.6016 10.365 21.054 9.58091 20.484 9.25166L18.1693 7.91465V4.31354C18.1693 3.70839 17.2599 3.70839 17.2599 4.31354ZM4.54199 12.7161C4.54199 12.7161 12.719 12.7161 16.8074 12.7161C17.301 12.7161 17.7168 13.1135 17.7168 13.6246C17.7167 16.9546 17.7168 20.2885 17.7168 23.6206H9.94855C9.73675 22.5867 8.83265 21.8037 7.7208 21.8037C6.60895 21.8037 5.70687 22.5867 5.49572 23.6206H3.63261V21.3477H4.54199C5.14611 21.3477 5.14611 20.4383 4.54199 20.4383H3.63261V18.6249H5.90294C6.49545 18.6249 6.49545 17.7164 5.90294 17.7164H3.63261V15.8985H4.54199C5.14611 15.8985 5.14611 14.99 4.54199 14.99H3.63261V13.6246C3.63261 13.1135 4.04857 12.7161 4.54199 12.7161ZM7.26905 13.6246C6.6628 13.6246 6.6628 14.534 7.26905 14.534H8.63444C9.24069 14.534 9.24069 13.6246 8.63444 13.6246H7.26905ZM18.6253 15.8985H21.3481C21.3481 15.8985 21.3476 19.8604 21.3481 19.9858C21.3486 20.1112 21.6787 20.4388 21.8041 20.4383C21.9295 20.4378 25.4389 20.4383 25.4389 20.4383V23.6206H24.0283C23.8172 22.5867 22.9071 21.8037 21.8041 21.8037C20.7011 21.8037 19.7882 22.5867 19.5764 23.6206H18.6253V15.8985ZM22.2566 15.8985C22.2566 15.8985 22.5606 15.8985 22.7126 15.8985C24.5499 15.8985 25.4389 17.4492 25.4389 19.0773C25.4389 19.2281 25.4389 19.5298 25.4389 19.5298H22.2566V15.8985ZM7.7208 22.7122C8.4788 22.7122 9.08531 23.3151 9.08531 24.0731C9.08531 24.8311 8.46815 25.4385 7.7208 25.4385C6.97345 25.4385 6.35896 24.8161 6.35896 24.0731C6.35896 23.3302 6.96281 22.7122 7.7208 22.7122ZM21.8041 22.7122C22.5621 22.7122 23.1651 23.3151 23.1651 24.0731C23.1651 24.8311 22.5497 25.4385 21.8041 25.4385C21.0585 25.4385 20.4387 24.816 20.4387 24.0731C20.4387 23.3302 21.0461 22.7122 21.8041 22.7122Z" fill="#3579F4"/>
</g>
<defs>
<clipPath id="clip0_376_260">
<rect width="27" height="27" fill="white"/>
</clipPath>
</defs>
</svg>
