<svg width="27" height="27" viewBox="0 0 27 27" fill="none" xmlns="http://www.w3.org/2000/svg">
<path fill-rule="evenodd" clip-rule="evenodd" d="M13.0403 0.00179306L13.0793 0.00672409L13.1178 0.0152411L13.155 0.0273445L13.1913 0.0421374L13.2263 0.0605164L13.2595 0.081585L13.2904 0.105792L13.3191 0.13224L13.3455 0.161377L17.8282 5.54061L17.852 5.57154L17.8731 5.60471L17.891 5.63923L17.9058 5.67554L17.9174 5.71275L17.9255 5.7513L17.9304 5.78985L17.9322 5.82885L17.9304 5.8683L17.9251 5.90685L17.9166 5.94495L17.9049 5.98216L17.8897 6.01847L17.8713 6.05298L17.8502 6.08571L17.8265 6.11664L17.8 6.14578L17.7709 6.17177L17.7399 6.19553L17.7068 6.2166L17.6722 6.23453L17.6359 6.24933L17.5987 6.26098L17.5602 6.26905L17.5216 6.27398L17.4826 6.27577L17.4432 6.27398L17.4046 6.2686L17.3665 6.26008L17.3293 6.24843L17.293 6.23319L17.2585 6.21481L17.2258 6.19374L17.1948 6.16998L17.1657 6.14353L17.1397 6.1144L13.0013 1.14847L8.86285 6.1144L8.83685 6.14353L8.80772 6.16998L8.77679 6.19374L8.74406 6.21481L8.70955 6.23319L8.67323 6.24843L8.63603 6.26008L8.59793 6.2686L8.55937 6.27398L8.51993 6.27577L8.48093 6.27398L8.44238 6.26905L8.40382 6.26098L8.36662 6.24933L8.33031 6.23453L8.29579 6.2166L8.26262 6.19553L8.23169 6.17177L8.20255 6.14578L8.1761 6.11664L8.15235 6.08571L8.13128 6.05298L8.1129 6.01847L8.09766 5.98216L8.086 5.94495L8.07749 5.90685L8.07211 5.8683L8.07031 5.82885L8.07211 5.78985L8.07704 5.7513L8.08511 5.71275L8.09676 5.67554L8.11155 5.63923L8.12948 5.60471L8.15055 5.57154L8.17431 5.54061L12.657 0.161377L12.6835 0.13224L12.7121 0.105792L12.7431 0.081585L12.7762 0.0605164L12.8112 0.0421374L12.8475 0.0273445L12.8847 0.0152411L12.9233 0.00672409L12.9623 0.00179306L13.0013 0L13.0403 0.00179306Z" fill="#3579F4"/>
<path fill-rule="evenodd" clip-rule="evenodd" d="M4.52035 0.00179306L4.55801 0.00627575L4.59476 0.0143447L4.63107 0.0251031L4.66604 0.0394477L4.70011 0.0560337L4.73193 0.0757575L4.76242 0.0981711L4.79111 0.122826L4.81755 0.15017L4.84131 0.179308L8.87574 5.55854L8.89681 5.58902L8.91519 5.6213L8.93088 5.65492L8.94343 5.68944L8.95374 5.7253L8.96046 5.76161L8.9645 5.79837L8.96539 5.83557L8.96315 5.87233L8.95777 5.90909L8.9497 5.9454L8.9385 5.98081L8.92415 6.01488L8.90757 6.04805L8.88784 6.07943L8.86588 6.10902L8.84122 6.13681L8.81477 6.16281L8.78608 6.18612L8.7556 6.20719L8.72333 6.22557L8.68971 6.24126L8.65519 6.25381L8.61933 6.26412L8.58302 6.27084L8.54626 6.27488L8.50905 6.27577L8.4723 6.27353L8.43554 6.26815L8.39923 6.26008L8.36381 6.24888L8.32975 6.23453L8.29657 6.21795L8.26519 6.19822L8.23561 6.17626L8.20782 6.1516L8.18182 6.12515L8.15851 6.09647L4.4827 1.19553L0.806885 6.09647L0.783575 6.12515L0.757576 6.1516L0.729783 6.17626L0.700197 6.19822L0.668818 6.21795L0.635646 6.23453L0.601578 6.24888L0.566165 6.26008L0.529855 6.26815L0.493097 6.27353L0.456339 6.27577L0.419132 6.27488L0.382374 6.27084L0.346064 6.26412L0.310203 6.25381L0.275686 6.24126L0.242066 6.22557L0.20979 6.20719L0.179308 6.18612L0.150619 6.16281L0.124171 6.13681L0.0995158 6.10902L0.0775507 6.07943L0.0578268 6.04805L0.0412408 6.01488L0.0268962 5.98081L0.0156895 5.9454L0.00762057 5.90909L0.0022414 5.87233L0 5.83557L0.000896581 5.79837L0.00493093 5.76161L0.011655 5.7253L0.0219652 5.68944L0.0345167 5.65492L0.0502062 5.6213L0.0685853 5.58902L0.0896539 5.55854L4.12408 0.179308L4.14784 0.15017L4.17429 0.122826L4.20298 0.0981711L4.23346 0.0757575L4.26529 0.0560337L4.29935 0.0394477L4.33432 0.0251031L4.37063 0.0143447L4.40739 0.00627575L4.44504 0.00179306L4.4827 0L4.52035 0.00179306Z" fill="#3579F4"/>
<path fill-rule="evenodd" clip-rule="evenodd" d="M21.5555 0.00179306L21.5932 0.00627575L21.6299 0.0143447L21.6662 0.0251031L21.7012 0.0394477L21.7353 0.0560337L21.7671 0.0757575L21.7976 0.0981711L21.8263 0.122826L21.8527 0.15017L21.8765 0.179308L25.9109 5.55854L25.932 5.58902L25.9503 5.6213L25.966 5.65492L25.9786 5.68944L25.9889 5.7253L25.9956 5.76161L25.9997 5.79837L26.0005 5.83557L25.9983 5.87233L25.9929 5.90909L25.9849 5.9454L25.9737 5.98081L25.9593 6.01488L25.9427 6.04805L25.923 6.07943L25.901 6.10902L25.8764 6.13681L25.8499 6.16281L25.8212 6.18612L25.7908 6.20719L25.7585 6.22557L25.7249 6.24126L25.6903 6.25381L25.6545 6.26412L25.6182 6.27084L25.5814 6.27488L25.5442 6.27577L25.5075 6.27353L25.4707 6.26815L25.4344 6.26008L25.399 6.24888L25.3649 6.23453L25.3317 6.21795L25.3004 6.19822L25.2708 6.17626L25.243 6.1516L25.217 6.12515L25.1937 6.09647L21.5179 1.19553L17.842 6.09647L17.8187 6.12515L17.7927 6.1516L17.7649 6.17626L17.7354 6.19822L17.704 6.21795L17.6708 6.23453L17.6367 6.24888L17.6013 6.26008L17.565 6.26815L17.5283 6.27353L17.4915 6.27577L17.4543 6.27488L17.4175 6.27084L17.3812 6.26412L17.3454 6.25381L17.3108 6.24126L17.2772 6.22557L17.2449 6.20719L17.2145 6.18612L17.1858 6.16281L17.1593 6.13681L17.1347 6.10902L17.1127 6.07943L17.093 6.04805L17.0764 6.01488L17.0621 5.98081L17.0508 5.9454L17.0428 5.90909L17.0374 5.87233L17.0352 5.83557L17.0361 5.79837L17.0401 5.76161L17.0468 5.7253L17.0571 5.68944L17.0697 5.65492L17.0854 5.6213L17.1037 5.58902L17.1248 5.55854L21.1592 0.179308L21.183 0.15017L21.2094 0.122826L21.2381 0.0981711L21.2686 0.0757575L21.3004 0.0560337L21.3345 0.0394477L21.3695 0.0251031L21.4058 0.0143447L21.4425 0.00627575L21.4802 0.00179306L21.5179 0L21.5555 0.00179306Z" fill="#3579F4"/>
<path fill-rule="evenodd" clip-rule="evenodd" d="M20.6724 13.4497L20.7244 13.4506L20.7759 13.4524L20.8275 13.4546L20.879 13.4573L20.9301 13.4609L20.9812 13.4654L21.0323 13.4698L21.083 13.4757L21.1336 13.4815L21.1838 13.4882L21.234 13.4958L21.2838 13.5039L21.3336 13.5124L21.3833 13.5214L21.4326 13.5313L21.4819 13.5416L21.5308 13.5528L21.5797 13.564L21.6281 13.5765L21.676 13.5891L21.724 13.6025L21.772 13.6164L21.8195 13.6308L21.867 13.646L21.9136 13.6613L21.9607 13.6778L22.0073 13.6944L22.0535 13.7115L22.0992 13.7294L22.1449 13.7478L22.1907 13.7666L22.2355 13.7863L22.2803 13.806L22.3251 13.8267L22.3691 13.8477L22.413 13.8692L22.4569 13.8912L22.5004 13.9136L22.5434 13.9369L22.586 13.9602L22.6282 13.9845L22.6703 14.0091L22.712 14.0338L22.7537 14.0593L22.7945 14.0853L22.8353 14.1118L22.8761 14.1391L22.916 14.1664L22.9554 14.1942L22.9948 14.2225L23.0338 14.2512L23.0724 14.2808L23.1109 14.3103L23.1486 14.3404L23.1863 14.3713L23.2235 14.4022L23.2602 14.4336L23.2965 14.4654L23.3324 14.4977L23.3683 14.5304L23.4032 14.5636L23.4382 14.5972L23.4727 14.6313L23.5068 14.6658L23.5404 14.7008L23.5736 14.7358L23.6063 14.7716L23.6386 14.8075L23.6704 14.8438L23.7018 14.8805L23.7327 14.9178L23.7636 14.9554L23.7937 14.9931L23.8233 15.0316L23.8528 15.0702L23.8815 15.1092L23.9098 15.1486L23.9376 15.1881L23.9649 15.228L23.9922 15.2687L24.0187 15.3095L24.0447 15.3503L24.0702 15.392L24.0953 15.4337L24.1196 15.4758L24.1438 15.518L24.1671 15.5606L24.1904 15.604L24.2128 15.6471L24.2348 15.691L24.2563 15.7349L24.2773 15.7789L24.298 15.8237L24.3177 15.8685L24.3374 15.9134L24.3562 15.9591L24.3746 16.0048L24.3926 16.0505L24.4096 16.0967L24.4262 16.1433L24.4428 16.1904L24.458 16.237L24.4732 16.2845L24.4876 16.332L24.5015 16.38L24.5149 16.428L24.5275 16.4759L24.54 16.5243L24.5512 16.5732L24.5624 16.6221L24.5728 16.6714L24.5826 16.7207L24.5916 16.7704L24.6001 16.8202L24.6082 16.87L24.6158 16.9202L24.6225 16.9704L24.6283 17.021L24.6342 17.0717L24.6387 17.1228L24.6431 17.1739L24.6467 17.225L24.6494 17.2765L24.6517 17.3281L24.6534 17.3796L24.6543 17.4316L24.6548 17.4836L24.6543 17.5356L24.6534 17.5876L24.6517 17.6392L24.6494 17.6907L24.6467 17.7423L24.6431 17.7934L24.6387 17.8445L24.6342 17.8956L24.6283 17.9463L24.6225 17.9969L24.6158 18.0471L24.6082 18.0973L24.6001 18.1471L24.5916 18.1968L24.5826 18.2466L24.5728 18.2959L24.5624 18.3452L24.5512 18.3941L24.54 18.4429L24.5275 18.4914L24.5149 18.5393L24.5015 18.5873L24.4876 18.6352L24.4732 18.6828L24.458 18.7303L24.4428 18.7769L24.4262 18.824L24.4096 18.8706L24.3926 18.9168L24.3746 18.9625L24.3562 19.0082L24.3374 19.0539L24.3177 19.0988L24.298 19.1436L24.2773 19.1884L24.2563 19.2323L24.2348 19.2763L24.2128 19.3202L24.1904 19.3632L24.1671 19.4067L24.1438 19.4493L24.1196 19.4914L24.0953 19.5336L24.0702 19.5753L24.0447 19.617L24.0187 19.6578L23.9922 19.6985L23.9649 19.7393L23.9376 19.7792L23.9098 19.8187L23.8815 19.8581L23.8528 19.8971L23.8233 19.9357L23.7937 19.9742L23.7636 20.0119L23.7327 20.0495L23.7018 20.0867L23.6704 20.1235L23.6386 20.1598L23.6063 20.1957L23.5736 20.2315L23.5404 20.2665L23.5068 20.3015L23.4727 20.336L23.4382 20.3701L23.4032 20.4037L23.3683 20.4368L23.3324 20.4696L23.2965 20.5018L23.2602 20.5337L23.2235 20.565L23.1863 20.596L23.1486 20.6269L23.1109 20.6569L23.0724 20.6865L23.0338 20.7161L22.9948 20.7448L22.9554 20.773L22.916 20.8008L22.8761 20.8282L22.8353 20.8555L22.7945 20.882L22.7537 20.908L22.712 20.9335L22.6703 20.9582L22.6282 20.9828L22.586 21.007L22.5434 21.0304L22.5004 21.0537L22.4569 21.0761L22.413 21.098L22.3691 21.1196L22.3251 21.1406L22.2803 21.1612L22.2355 21.181L22.1907 21.2007L22.1449 21.2195L22.0992 21.2379L22.0535 21.2558L22.0073 21.2729L21.9607 21.2895L21.9136 21.306L21.867 21.3213L21.8195 21.3365L21.772 21.3509L21.724 21.3648L21.676 21.3782L21.6281 21.3908L21.5797 21.4033L21.5308 21.4145L21.4819 21.4257L21.4326 21.436L21.3833 21.4459L21.3336 21.4549L21.2838 21.4634L21.234 21.4714L21.1838 21.4791L21.1336 21.4858L21.083 21.4916L21.0323 21.4974L20.9812 21.5019L20.9301 21.5064L20.879 21.51L20.8275 21.5127L20.7759 21.5149L20.7244 21.5167L20.6724 21.5176L20.6204 21.5181L20.5684 21.5176L20.5164 21.5167L20.4648 21.5149L20.4133 21.5127L20.3617 21.51L20.3106 21.5064L20.2595 21.5019L20.2084 21.4974L20.1577 21.4916L20.1071 21.4858L20.0569 21.4791L20.0067 21.4714L19.9569 21.4634L19.9072 21.4549L19.8574 21.4459L19.8081 21.436L19.7588 21.4257L19.7099 21.4145L19.6611 21.4033L19.6127 21.3908L19.5647 21.3782L19.5167 21.3648L19.4688 21.3509L19.4212 21.3365L19.3737 21.3213L19.3271 21.306L19.28 21.2895L19.2334 21.2729L19.1872 21.2558L19.1415 21.2379L19.0958 21.2195L19.0501 21.2007L19.0052 21.181L18.9604 21.1612L18.9156 21.1406L18.8717 21.1196L18.8277 21.098L18.7838 21.0761L18.7403 21.0537L18.6973 21.0304L18.6547 21.007L18.6126 20.9828L18.5704 20.9586L18.5287 20.9335L18.487 20.908L18.4463 20.882L18.4055 20.8555L18.3647 20.8282L18.3248 20.8008L18.2853 20.773L18.2459 20.7448L18.2069 20.7161L18.1683 20.6865L18.1298 20.6569L18.0921 20.6269L18.0545 20.596L18.0173 20.565L17.9805 20.5337L17.9442 20.5018L17.9083 20.4696L17.8725 20.4368L17.8375 20.4037L17.8025 20.3701L17.768 20.336L17.734 20.3015L17.7003 20.2665L17.6672 20.2315L17.6344 20.1957L17.6022 20.1598L17.5703 20.1235L17.539 20.0867L17.508 20.0495L17.4771 20.0119L17.4471 19.9742L17.4175 19.9357L17.3879 19.8971L17.3592 19.8581L17.331 19.8187L17.3032 19.7792L17.2758 19.7393L17.2485 19.6985L17.222 19.6578L17.196 19.617L17.1705 19.5753L17.1454 19.5336L17.1212 19.4914L17.097 19.4493L17.0737 19.4067L17.0503 19.3637L17.0279 19.3202L17.006 19.2763L16.9844 19.2323L16.9634 19.1884L16.9428 19.1436L16.923 19.0988L16.9033 19.0539L16.8845 19.0082L16.8661 18.9625L16.8482 18.9168L16.8311 18.8706L16.8146 18.824L16.798 18.7769L16.7827 18.7303L16.7675 18.6828L16.7531 18.6352L16.7392 18.5873L16.7258 18.5393L16.7132 18.4914L16.7007 18.4429L16.6895 18.3941L16.6783 18.3452L16.668 18.2959L16.6581 18.2466L16.6491 18.1968L16.6406 18.1471L16.6326 18.0973L16.6249 18.0471L16.6182 17.9969L16.6124 17.9463L16.6066 17.8956L16.6021 17.8445L16.5976 17.7934L16.594 17.7423L16.5913 17.6907L16.5891 17.6392L16.5873 17.5876L16.5864 17.5356L16.5859 17.4836L16.5864 17.4316L16.5873 17.3796L16.5891 17.3281L16.5913 17.2765L16.594 17.225L16.5976 17.1739L16.6021 17.1228L16.6066 17.0717L16.6124 17.021L16.6182 16.9704L16.6249 16.9202L16.6326 16.87L16.6406 16.8202L16.6491 16.7704L16.6581 16.7207L16.668 16.6714L16.6783 16.6221L16.6895 16.5732L16.7007 16.5243L16.7132 16.4759L16.7258 16.428L16.7392 16.38L16.7531 16.332L16.7675 16.2845L16.7827 16.237L16.798 16.1904L16.8146 16.1433L16.8311 16.0967L16.8482 16.0505L16.8661 16.0048L16.8845 15.9591L16.9033 15.9134L16.923 15.8685L16.9428 15.8237L16.9634 15.7789L16.9844 15.7349L17.006 15.691L17.0279 15.6471L17.0503 15.6036L17.0737 15.5606L17.097 15.518L17.1212 15.4758L17.1454 15.4337L17.1705 15.392L17.196 15.3503L17.222 15.3095L17.2485 15.2687L17.2758 15.228L17.3032 15.1881L17.331 15.1486L17.3592 15.1092L17.3879 15.0702L17.4175 15.0316L17.4471 14.9931L17.4771 14.9554L17.508 14.9178L17.539 14.8805L17.5703 14.8438L17.6022 14.8075L17.6344 14.7716L17.6672 14.7358L17.7003 14.7008L17.734 14.6658L17.768 14.6313L17.8025 14.5972L17.8375 14.5636L17.8725 14.5304L17.9083 14.4977L17.9442 14.4654L17.9805 14.4336L18.0173 14.4022L18.0545 14.3713L18.0921 14.3404L18.1298 14.3103L18.1683 14.2808L18.2069 14.2512L18.2459 14.2225L18.2853 14.1942L18.3248 14.1664L18.3647 14.1391L18.4055 14.1118L18.4463 14.0853L18.487 14.0593L18.5287 14.0338L18.5704 14.0087L18.6126 13.9845L18.6547 13.9602L18.6973 13.9369L18.7403 13.9136L18.7838 13.8912L18.8277 13.8692L18.8717 13.8477L18.9156 13.8267L18.9604 13.806L19.0052 13.7863L19.0501 13.7666L19.0958 13.7478L19.1415 13.7294L19.1872 13.7115L19.2334 13.6944L19.28 13.6778L19.3271 13.6613L19.3737 13.646L19.4212 13.6308L19.4688 13.6164L19.5167 13.6025L19.5647 13.5891L19.6127 13.5765L19.6611 13.564L19.7099 13.5528L19.7588 13.5416L19.8081 13.5313L19.8574 13.5214L19.9072 13.5124L19.9569 13.5039L20.0067 13.4958L20.0569 13.4882L20.1071 13.4815L20.1577 13.4757L20.2084 13.4698L20.2595 13.4654L20.3106 13.4609L20.3617 13.4573L20.4133 13.4546L20.4648 13.4524L20.5164 13.4506L20.5684 13.4497L20.6204 13.4492L20.6724 13.4497ZM20.5796 14.3462L20.5392 14.3467L20.4989 14.348L20.4585 14.3498L20.4186 14.352L20.3787 14.3547L20.3389 14.3583L20.2994 14.3619L20.26 14.3664L20.2205 14.3709L20.1815 14.3762L20.1425 14.3821L20.1035 14.3883L20.065 14.3946L20.0264 14.4018L19.9879 14.4094L19.9498 14.4175L19.9116 14.426L19.874 14.435L19.8363 14.4444L19.7991 14.4547L19.7615 14.465L19.7247 14.4758L19.6875 14.487L19.6512 14.4986L19.6144 14.5107L19.5781 14.5233L19.5423 14.5363L19.5064 14.5497L19.4706 14.5632L19.4351 14.5775L19.3997 14.5923L19.3648 14.6075L19.3298 14.6228L19.2953 14.6389L19.2608 14.6551L19.2267 14.6717L19.1926 14.6891L19.159 14.7066L19.1258 14.7245L19.0922 14.7429L19.0595 14.7613L19.0268 14.7806L18.994 14.7999L18.9622 14.82L18.9299 14.8402L18.8986 14.8608L18.8667 14.8819L18.8358 14.903L18.8049 14.9249L18.7744 14.9469L18.7439 14.9693L18.7139 14.9922L18.6838 15.015L18.6543 15.0388L18.6251 15.0625L18.5964 15.0867L18.5677 15.1114L18.539 15.1361L18.5113 15.1612L18.4835 15.1867L18.4561 15.2127L18.4288 15.2387L18.4019 15.2652L18.3754 15.2921L18.3494 15.3194L18.3234 15.3467L18.2979 15.3745L18.2728 15.4023L18.2481 15.431L18.2235 15.4597L18.1993 15.4884L18.1755 15.5175L18.1517 15.5471L18.1289 15.5772L18.106 15.6072L18.0836 15.6377L18.0616 15.6682L18.0397 15.6991L18.0186 15.73L17.9975 15.7618L17.9769 15.7932L17.9567 15.8255L17.9366 15.8573L17.9173 15.89L17.898 15.9228L17.8796 15.9555L17.8613 15.9891L17.8433 16.0223L17.8259 16.0559L17.8084 16.09L17.7918 16.124L17.7756 16.1586L17.7595 16.1931L17.7443 16.228L17.729 16.263L17.7142 16.2984L17.6999 16.3338L17.6864 16.3697L17.673 16.4056L17.66 16.4414L17.6474 16.4777L17.6353 16.5145L17.6237 16.5508L17.6125 16.588L17.6017 16.6248L17.5914 16.6624L17.5811 16.6996L17.5717 16.7373L17.5627 16.7749L17.5542 16.813L17.5461 16.8511L17.5385 16.8897L17.5313 16.9282L17.5251 16.9668L17.5188 17.0058L17.513 17.0448L17.5076 17.0838L17.5031 17.1232L17.4986 17.1627L17.495 17.2021L17.4914 17.242L17.4888 17.2819L17.4865 17.3218L17.4847 17.3622L17.4834 17.4025L17.4829 17.4429L17.4825 17.4836L17.4829 17.5244L17.4834 17.5648L17.4847 17.6051L17.4865 17.6455L17.4888 17.6854L17.4914 17.7253L17.495 17.7652L17.4986 17.8046L17.5031 17.8441L17.5076 17.8835L17.513 17.9225L17.5188 17.9615L17.5251 18.0005L17.5313 18.039L17.5385 18.0776L17.5461 18.1162L17.5542 18.1543L17.5627 18.1924L17.5717 18.23L17.5811 18.2677L17.5914 18.3049L17.6017 18.3425L17.6125 18.3793L17.6237 18.4165L17.6353 18.4528L17.6474 18.4896L17.66 18.5259L17.673 18.5617L17.6864 18.5976L17.6999 18.6335L17.7142 18.6689L17.729 18.7043L17.7443 18.7392L17.7595 18.7742L17.7756 18.8087L17.7918 18.8432L17.8084 18.8773L17.8259 18.9114L17.8433 18.945L17.8613 18.9782L17.8796 19.0118L17.898 19.0445L17.9173 19.0772L17.9366 19.11L17.9567 19.1418L17.9769 19.1741L17.9975 19.2054L18.0186 19.2373L18.0397 19.2682L18.0616 19.2991L18.0836 19.3296L18.106 19.3601L18.1289 19.3901L18.1517 19.4202L18.1755 19.4498L18.1993 19.4789L18.2235 19.5076L18.2481 19.5363L18.2728 19.565L18.2979 19.5928L18.3234 19.6205L18.3494 19.6479L18.3754 19.6752L18.4019 19.7021L18.4288 19.7286L18.4561 19.7546L18.4835 19.7806L18.5113 19.8061L18.539 19.8312L18.5677 19.8559L18.5964 19.8805L18.6251 19.9047L18.6543 19.9285L18.6838 19.9523L18.7139 19.9751L18.7439 19.998L18.7744 20.0204L18.8049 20.0424L18.8358 20.0643L18.8667 20.0854L18.8986 20.1065L18.9299 20.1271L18.9622 20.1473L18.994 20.1674L19.0268 20.1867L19.0595 20.206L19.0922 20.2244L19.1258 20.2427L19.159 20.2607L19.1926 20.2782L19.2267 20.2956L19.2608 20.3122L19.2953 20.3284L19.3298 20.3445L19.3648 20.3597L19.3997 20.375L19.4351 20.3898L19.4706 20.4041L19.5064 20.4176L19.5423 20.431L19.5781 20.444L19.6144 20.4566L19.6512 20.4687L19.6875 20.4803L19.7247 20.4915L19.7615 20.5023L19.7991 20.5126L19.8363 20.5229L19.874 20.5323L19.9116 20.5413L19.9498 20.5498L19.9879 20.5579L20.0264 20.5655L20.065 20.5727L20.1035 20.5789L20.1425 20.5852L20.1815 20.591L20.2205 20.5964L20.26 20.6009L20.2994 20.6054L20.3389 20.609L20.3787 20.6126L20.4186 20.6153L20.4585 20.6175L20.4989 20.6193L20.5392 20.6206L20.5796 20.6211L20.6204 20.6215L20.6612 20.6211L20.7015 20.6206L20.7418 20.6193L20.7822 20.6175L20.8221 20.6153L20.862 20.6126L20.9019 20.609L20.9413 20.6054L20.9808 20.6009L21.0202 20.5964L21.0592 20.591L21.0982 20.5852L21.1372 20.5789L21.1758 20.5727L21.2143 20.5655L21.2529 20.5579L21.291 20.5498L21.3291 20.5413L21.3667 20.5323L21.4044 20.5229L21.4416 20.5126L21.4792 20.5023L21.516 20.4915L21.5532 20.4803L21.5895 20.4687L21.6263 20.4566L21.6626 20.444L21.6985 20.431L21.7343 20.4176L21.7702 20.4041L21.8056 20.3898L21.841 20.375L21.876 20.3597L21.9109 20.3445L21.9454 20.3284L21.98 20.3122L22.014 20.2956L22.0481 20.2782L22.0817 20.2607L22.1149 20.2427L22.1485 20.2244L22.1812 20.206L22.214 20.1867L22.2467 20.1674L22.2785 20.1473L22.3108 20.1271L22.3422 20.1065L22.374 20.0854L22.4049 20.0643L22.4359 20.0424L22.4663 20.0204L22.4968 19.998L22.5269 19.9751L22.5569 19.9523L22.5865 19.9285L22.6156 19.9047L22.6443 19.8805L22.673 19.8559L22.7017 19.8312L22.7295 19.8061L22.7573 19.7806L22.7846 19.7546L22.812 19.7286L22.8389 19.7021L22.8653 19.6752L22.8913 19.6479L22.9173 19.6205L22.9428 19.5928L22.968 19.565L22.9926 19.5363L23.0173 19.5076L23.0415 19.4789L23.0652 19.4498L23.089 19.4202L23.1118 19.3901L23.1347 19.3601L23.1571 19.3296L23.1791 19.2991L23.2011 19.2682L23.2221 19.2373L23.2432 19.2054L23.2638 19.1741L23.284 19.1418L23.3042 19.11L23.3234 19.0772L23.3427 19.0445L23.3611 19.0118L23.3795 18.9782L23.3974 18.945L23.4149 18.9114L23.4324 18.8773L23.4489 18.8432L23.4651 18.8087L23.4812 18.7742L23.4965 18.7392L23.5117 18.7043L23.5265 18.6689L23.5408 18.6335L23.5543 18.5976L23.5677 18.5617L23.5807 18.5259L23.5933 18.4896L23.6054 18.4528L23.617 18.4165L23.6283 18.3793L23.639 18.3425L23.6493 18.3049L23.6596 18.2677L23.669 18.23L23.678 18.1924L23.6865 18.1543L23.6946 18.1162L23.7022 18.0776L23.7094 18.039L23.7157 18.0005L23.7219 17.9615L23.7278 17.9225L23.7331 17.8835L23.7376 17.8441L23.7421 17.8046L23.7457 17.7652L23.7493 17.7253L23.752 17.6854L23.7542 17.6455L23.756 17.6051L23.7574 17.5648L23.7578 17.5244L23.7583 17.4836L23.7578 17.4429L23.7574 17.4025L23.756 17.3622L23.7542 17.3218L23.752 17.2819L23.7493 17.242L23.7457 17.2021L23.7421 17.1627L23.7376 17.1232L23.7331 17.0838L23.7278 17.0448L23.7219 17.0058L23.7157 16.9668L23.7094 16.9282L23.7022 16.8897L23.6946 16.8511L23.6865 16.813L23.678 16.7749L23.669 16.7373L23.6596 16.6996L23.6493 16.6624L23.639 16.6248L23.6283 16.588L23.617 16.5508L23.6054 16.5145L23.5933 16.4777L23.5807 16.4414L23.5677 16.4056L23.5543 16.3697L23.5408 16.3338L23.5265 16.2984L23.5117 16.263L23.4965 16.228L23.4812 16.1931L23.4651 16.1586L23.4489 16.124L23.4324 16.09L23.4149 16.0559L23.3974 16.0223L23.3795 15.9891L23.3611 15.9555L23.3427 15.9228L23.3234 15.89L23.3042 15.8573L23.284 15.8255L23.2638 15.7932L23.2432 15.7618L23.2221 15.73L23.2011 15.6991L23.1791 15.6682L23.1571 15.6377L23.1347 15.6072L23.1118 15.5772L23.089 15.5471L23.0652 15.5175L23.0415 15.4884L23.0173 15.4597L22.9926 15.431L22.968 15.4023L22.9428 15.3745L22.9173 15.3467L22.8913 15.3194L22.8653 15.2921L22.8389 15.2652L22.812 15.2387L22.7846 15.2127L22.7573 15.1867L22.7295 15.1612L22.7017 15.1361L22.673 15.1114L22.6443 15.0867L22.6156 15.0625L22.5865 15.0388L22.5569 15.015L22.5269 14.9922L22.4968 14.9693L22.4663 14.9469L22.4359 14.9249L22.4049 14.903L22.374 14.8819L22.3422 14.8608L22.3108 14.8402L22.2785 14.82L22.2467 14.7999L22.214 14.7806L22.1812 14.7613L22.1485 14.7429L22.1149 14.7245L22.0817 14.7066L22.0481 14.6891L22.014 14.6717L21.98 14.6551L21.9454 14.6389L21.9109 14.6228L21.876 14.6075L21.841 14.5923L21.8056 14.5775L21.7702 14.5632L21.7343 14.5497L21.6985 14.5363L21.6626 14.5233L21.6263 14.5107L21.5895 14.4986L21.5532 14.487L21.516 14.4758L21.4792 14.465L21.4416 14.4547L21.4044 14.4444L21.3667 14.435L21.3291 14.426L21.291 14.4175L21.2529 14.4094L21.2143 14.4018L21.1758 14.3946L21.1372 14.3883L21.0982 14.3821L21.0592 14.3762L21.0202 14.3709L20.9808 14.3664L20.9413 14.3619L20.9019 14.3583L20.862 14.3547L20.8221 14.352L20.7822 14.3498L20.7418 14.348L20.7015 14.3467L20.6612 14.3462L20.6204 14.3458L20.5796 14.3462Z" fill="#3579F4"/>
<path fill-rule="evenodd" clip-rule="evenodd" d="M20.682 15.2411L20.7389 15.2429L20.7963 15.2465L20.8528 15.2519L20.9088 15.2582L20.9648 15.2662L21.0204 15.2752L21.0751 15.286L21.1298 15.2976L21.184 15.3111L21.2374 15.3254L21.2903 15.3411L21.3427 15.3581L21.3947 15.3765L21.4458 15.3958L21.4965 15.4169L21.5467 15.4384L21.596 15.4617L21.6444 15.4859L21.6928 15.511L21.7399 15.5374L21.7865 15.5652L21.8322 15.5939L21.8775 15.6235L21.9219 15.654L21.9654 15.6858L22.008 15.7185L22.0497 15.7526L22.0909 15.7871L22.1312 15.823L22.1702 15.8593L22.2088 15.8969L22.2464 15.9355L22.2828 15.9745L22.3186 16.0148L22.3531 16.0561L22.3872 16.0978L22.4199 16.1404L22.4518 16.1838L22.4822 16.2282L22.5118 16.2735L22.5405 16.3192L22.5683 16.3658L22.5948 16.4129L22.6199 16.4613L22.6441 16.5097L22.6674 16.559L22.6889 16.6092L22.71 16.6599L22.7292 16.711L22.7476 16.763L22.7646 16.8155L22.7803 16.8683L22.7947 16.9217L22.8081 16.9759L22.8198 17.0306L22.8305 17.0853L22.8395 17.1409L22.8476 17.1969L22.8539 17.253L22.8592 17.3094L22.8628 17.3668L22.8646 17.4238L22.8655 17.4816L22.8646 17.5394L22.8628 17.5963L22.8592 17.6537L22.8539 17.7102L22.8476 17.7662L22.8395 17.8223L22.8305 17.8779L22.8198 17.9325L22.8081 17.9872L22.7947 18.0415L22.7803 18.0948L22.7646 18.1477L22.7476 18.2002L22.7292 18.2522L22.71 18.3033L22.6889 18.3539L22.6674 18.4041L22.6441 18.4534L22.6199 18.5018L22.5948 18.5503L22.5683 18.5973L22.5405 18.6439L22.5118 18.6897L22.4822 18.7349L22.4518 18.7793L22.4199 18.8228L22.3872 18.8654L22.3531 18.9071L22.3186 18.9483L22.2828 18.9887L22.2464 19.0277L22.2088 19.0662L22.1702 19.1039L22.1312 19.1402L22.0909 19.176L22.0497 19.2106L22.008 19.2446L21.9654 19.2774L21.9219 19.3092L21.8775 19.3397L21.8322 19.3692L21.7865 19.3979L21.7399 19.4257L21.6928 19.4522L21.6444 19.4773L21.596 19.5015L21.5467 19.5248L21.4965 19.5463L21.4458 19.5674L21.3947 19.5867L21.3427 19.605L21.2903 19.6221L21.2374 19.6378L21.184 19.6521L21.1298 19.6656L21.0751 19.6772L21.0204 19.688L20.9648 19.6969L20.9088 19.705L20.8528 19.7113L20.7963 19.7167L20.7389 19.7202L20.682 19.722L20.6242 19.7229L20.5663 19.722L20.5094 19.7202L20.452 19.7167L20.3955 19.7113L20.3395 19.705L20.2835 19.6969L20.2279 19.688L20.1732 19.6772L20.1185 19.6656L20.0643 19.6521L20.0109 19.6378L19.958 19.6221L19.9056 19.605L19.8536 19.5867L19.8025 19.5674L19.7518 19.5463L19.7016 19.5248L19.6523 19.5015L19.6039 19.4773L19.5555 19.4522L19.5084 19.4257L19.4618 19.3979L19.4161 19.3692L19.3708 19.3397L19.3264 19.3092L19.2829 19.2774L19.2404 19.2446L19.1987 19.2106L19.1574 19.176L19.1171 19.1402L19.0781 19.1039L19.0395 19.0662L19.0019 19.0277L18.9656 18.9887L18.9297 18.9483L18.8952 18.9071L18.8611 18.8654L18.8284 18.8228L18.7966 18.7793L18.7661 18.7349L18.7365 18.6897L18.7078 18.6439L18.68 18.5973L18.6536 18.5503L18.6285 18.5018L18.6043 18.4534L18.5809 18.4041L18.5594 18.3539L18.5384 18.3033L18.5191 18.2522L18.5007 18.2002L18.4837 18.1477L18.468 18.0948L18.4536 18.0415L18.4402 17.9872L18.4285 17.9325L18.4178 17.8779L18.4088 17.8223L18.4007 17.7662L18.3945 17.7102L18.3891 17.6537L18.3855 17.5963L18.3837 17.5394L18.3828 17.4816L18.3837 17.4238L18.3855 17.3668L18.3891 17.3094L18.3945 17.253L18.4007 17.1969L18.4088 17.1409L18.4178 17.0853L18.4285 17.0306L18.4402 16.9759L18.4536 16.9217L18.468 16.8683L18.4837 16.8155L18.5007 16.763L18.5191 16.711L18.5384 16.6599L18.5594 16.6092L18.5809 16.559L18.6043 16.5097L18.6285 16.4613L18.6536 16.4129L18.68 16.3658L18.7078 16.3192L18.7365 16.2735L18.7661 16.2282L18.7966 16.1838L18.8284 16.1404L18.8611 16.0978L18.8952 16.0561L18.9297 16.0148L18.9656 15.9745L19.0019 15.9355L19.0395 15.8969L19.0781 15.8593L19.1171 15.823L19.1574 15.7871L19.1987 15.7526L19.2404 15.7185L19.2829 15.6858L19.3264 15.654L19.3708 15.6235L19.4161 15.5939L19.4618 15.5652L19.5084 15.5374L19.5555 15.511L19.6039 15.4859L19.6523 15.4617L19.7016 15.4384L19.7518 15.4169L19.8025 15.3958L19.8536 15.3765L19.9056 15.3581L19.958 15.3411L20.0109 15.3254L20.0643 15.3111L20.1185 15.2976L20.1732 15.286L20.2279 15.2752L20.2835 15.2662L20.3395 15.2582L20.3955 15.2519L20.452 15.2465L20.5094 15.2429L20.5663 15.2411L20.6242 15.2402L20.682 15.2411ZM20.5892 16.1372L20.5547 16.1386L20.5202 16.1408L20.4861 16.1439L20.4525 16.1475L20.4189 16.1525L20.3857 16.1578L20.353 16.1641L20.3202 16.1713L20.288 16.1794L20.2561 16.1879L20.2243 16.1973L20.1929 16.2076L20.162 16.2184L20.1315 16.23L20.101 16.2426L20.0714 16.2556L20.0419 16.2695L20.0127 16.2838L19.984 16.299L19.9553 16.3147L19.9275 16.3313L19.9002 16.3484L19.8729 16.3663L19.8464 16.3847L19.82 16.4039L19.7944 16.4237L19.7693 16.4438L19.7447 16.4649L19.7204 16.4864L19.6967 16.5084L19.6734 16.5308L19.651 16.5541L19.629 16.5779L19.6075 16.6021L19.5864 16.6267L19.5662 16.6518L19.5465 16.6774L19.5272 16.7038L19.5089 16.7303L19.4909 16.7576L19.4739 16.785L19.4573 16.8128L19.4416 16.8415L19.4264 16.8701L19.412 16.8993L19.3981 16.9289L19.3851 16.9585L19.3726 16.9889L19.3609 17.0194L19.3502 17.0503L19.3399 17.0817L19.3305 17.1136L19.3219 17.1454L19.3139 17.1777L19.3067 17.2104L19.3004 17.2431L19.295 17.2763L19.2901 17.3099L19.2865 17.3435L19.2834 17.3776L19.2811 17.4121L19.2798 17.4466L19.2794 17.4816L19.2798 17.5165L19.2811 17.5511L19.2834 17.5856L19.2865 17.6196L19.2901 17.6533L19.295 17.6869L19.3004 17.7201L19.3067 17.7528L19.3139 17.7855L19.3219 17.8178L19.3305 17.8496L19.3399 17.8814L19.3502 17.9128L19.3609 17.9437L19.3726 17.9742L19.3851 18.0047L19.3981 18.0343L19.412 18.0639L19.4264 18.093L19.4416 18.1217L19.4573 18.1504L19.4739 18.1782L19.4909 18.2055L19.5089 18.2329L19.5272 18.2593L19.5465 18.2858L19.5662 18.3113L19.5864 18.3364L19.6075 18.3611L19.629 18.3853L19.651 18.4091L19.6734 18.4324L19.6967 18.4548L19.7204 18.4767L19.7447 18.4983L19.7693 18.5193L19.7944 18.5395L19.82 18.5592L19.8464 18.5785L19.8729 18.5969L19.9002 18.6148L19.9275 18.6318L19.9553 18.6484L19.984 18.6641L20.0127 18.6794L20.0419 18.6937L20.0714 18.7076L20.101 18.7206L20.1315 18.7332L20.162 18.7448L20.1929 18.7556L20.2243 18.7659L20.2561 18.7753L20.288 18.7838L20.3202 18.7919L20.353 18.799L20.3857 18.8053L20.4189 18.8107L20.4525 18.8156L20.4861 18.8192L20.5202 18.8224L20.5547 18.8246L20.5892 18.8259L20.6242 18.8264L20.6591 18.8259L20.6936 18.8246L20.7282 18.8224L20.7622 18.8192L20.7958 18.8156L20.8295 18.8107L20.8626 18.8053L20.8954 18.799L20.9281 18.7919L20.9604 18.7838L20.9922 18.7753L21.024 18.7659L21.0554 18.7556L21.0863 18.7448L21.1168 18.7332L21.1473 18.7206L21.1769 18.7076L21.2065 18.6937L21.2356 18.6794L21.2643 18.6641L21.293 18.6484L21.3208 18.6318L21.3481 18.6148L21.3755 18.5969L21.4019 18.5785L21.4284 18.5592L21.4539 18.5395L21.479 18.5193L21.5037 18.4983L21.5279 18.4767L21.5516 18.4548L21.5749 18.4324L21.5974 18.4091L21.6193 18.3853L21.6408 18.3611L21.6619 18.3364L21.6821 18.3113L21.7018 18.2858L21.7211 18.2593L21.7395 18.2329L21.7574 18.2055L21.7744 18.1782L21.791 18.1504L21.8067 18.1217L21.8219 18.093L21.8363 18.0639L21.8502 18.0343L21.8632 18.0047L21.8757 17.9742L21.8874 17.9437L21.8981 17.9128L21.9085 17.8814L21.9179 17.8496L21.9264 17.8178L21.9345 17.7855L21.9416 17.7528L21.9479 17.7201L21.9533 17.6869L21.9582 17.6533L21.9618 17.6196L21.9649 17.5856L21.9672 17.5511L21.9685 17.5165L21.969 17.4816L21.9685 17.4466L21.9672 17.4121L21.9649 17.3776L21.9618 17.3435L21.9582 17.3099L21.9533 17.2763L21.9479 17.2431L21.9416 17.2104L21.9345 17.1777L21.9264 17.1454L21.9179 17.1136L21.9085 17.0817L21.8981 17.0503L21.8874 17.0194L21.8757 16.9889L21.8632 16.9585L21.8502 16.9289L21.8363 16.8993L21.8219 16.8701L21.8067 16.8415L21.791 16.8128L21.7744 16.785L21.7574 16.7576L21.7395 16.7303L21.7211 16.7038L21.7018 16.6774L21.6821 16.6518L21.6619 16.6267L21.6408 16.6021L21.6193 16.5779L21.5974 16.5541L21.5749 16.5308L21.5516 16.5084L21.5279 16.4864L21.5037 16.4649L21.479 16.4438L21.4539 16.4237L21.4284 16.4039L21.4019 16.3847L21.3755 16.3663L21.3481 16.3484L21.3208 16.3313L21.293 16.3147L21.2643 16.299L21.2356 16.2838L21.2065 16.2695L21.1769 16.2556L21.1473 16.2426L21.1168 16.23L21.0863 16.2184L21.0554 16.2076L21.024 16.1973L20.9922 16.1879L20.9604 16.1794L20.9281 16.1713L20.8954 16.1641L20.8626 16.1578L20.8295 16.1525L20.7958 16.1475L20.7622 16.1439L20.7282 16.1408L20.6936 16.1386L20.6591 16.1372L20.6242 16.1368L20.5892 16.1372Z" fill="#3579F4"/>
<path fill-rule="evenodd" clip-rule="evenodd" d="M20.6848 23.3162L20.7103 23.3207L20.7359 23.3265L20.761 23.3342L20.7856 23.3436L22.4124 23.994V20.2832L22.4133 20.255L22.416 20.2272L22.4205 20.1994L22.4263 20.1716L22.4343 20.1447L22.4438 20.1183L22.455 20.0923L22.468 20.0672L22.4823 20.043L22.498 20.0196L22.515 19.9977L22.5339 19.9762L22.5536 19.9564L22.5751 19.9376L22.5971 19.9206L22.6204 19.9049L22.6446 19.8905L22.6697 19.8775L22.6957 19.8663L22.7221 19.8569L22.749 19.8489L22.7768 19.843L22.8046 19.8385L22.8324 19.8359L22.8607 19.835L22.8889 19.8359L22.9167 19.8385L22.9445 19.843L22.9723 19.8489L22.9992 19.8569L23.0256 19.8663L23.0516 19.8775L23.0767 19.8905L23.1009 19.9049L23.1242 19.9206L23.1462 19.9376L23.1677 19.9564L23.1874 19.9762L23.2063 19.9977L23.2233 20.0196L23.239 20.043L23.2533 20.0672L23.2663 20.0923L23.2775 20.1183L23.287 20.1447L23.295 20.1716L23.3009 20.1994L23.3053 20.2272L23.308 20.255L23.3089 20.2832V24.6561L23.308 24.6843L23.3053 24.7126L23.3009 24.7404L23.2946 24.7677L23.287 24.7951L23.2775 24.8215L23.2659 24.8471L23.2533 24.8726L23.239 24.8968L23.2229 24.9201L23.2058 24.9421L23.187 24.9636L23.1668 24.9833L23.1458 25.0022L23.1233 25.0192L23.1 25.0349L23.0758 25.0492L23.0507 25.0622L23.0247 25.0734L22.9983 25.0829L22.9709 25.0905L22.9436 25.0968L22.9158 25.1008L22.8875 25.1035L22.8593 25.1044L22.8311 25.1035L22.8033 25.1008L22.7755 25.0963L22.7477 25.09L22.7208 25.082L22.6943 25.0721L20.6193 24.2423L18.5443 25.0721L18.5178 25.082L18.4909 25.09L18.4631 25.0963L18.4353 25.1008L18.4075 25.1035L18.3793 25.1044L18.3511 25.1035L18.3228 25.1008L18.295 25.0968L18.2677 25.0905L18.2403 25.0829L18.2139 25.0734L18.1879 25.0622L18.1628 25.0492L18.1386 25.0349L18.1153 25.0192L18.0929 25.0022L18.0718 24.9833L18.0516 24.9636L18.0328 24.9421L18.0158 24.9201L17.9996 24.8968L17.9853 24.8726L17.9727 24.8471L17.9611 24.8215L17.9517 24.7951L17.944 24.7677L17.9378 24.7404L17.9333 24.7126L17.9306 24.6843L17.9297 24.6561V20.2832L17.9306 20.255L17.9333 20.2272L17.9378 20.1994L17.9436 20.1716L17.9517 20.1447L17.9611 20.1183L17.9723 20.0923L17.9853 20.0672L17.9996 20.043L18.0153 20.0196L18.0323 19.9977L18.0512 19.9762L18.0709 19.9564L18.0924 19.9376L18.1144 19.9206L18.1377 19.9049L18.1619 19.8905L18.187 19.8775L18.213 19.8663L18.2394 19.8569L18.2663 19.8489L18.2941 19.843L18.3219 19.8385L18.3497 19.8359L18.378 19.835L18.4062 19.8359L18.434 19.8385L18.4618 19.843L18.4896 19.8489L18.5165 19.8569L18.5429 19.8663L18.5689 19.8775L18.594 19.8905L18.6182 19.9049L18.6415 19.9206L18.6635 19.9376L18.685 19.9564L18.7047 19.9762L18.7236 19.9977L18.7406 20.0196L18.7563 20.043L18.7706 20.0672L18.7836 20.0923L18.7948 20.1183L18.8043 20.1447L18.8123 20.1716L18.8182 20.1994L18.8226 20.2272L18.8253 20.255L18.8262 20.2832V23.994L20.453 23.3436L20.4777 23.3342L20.5028 23.3265L20.5283 23.3207L20.5539 23.3162L20.5799 23.3131L20.6063 23.3113H20.6323L20.6588 23.3131L20.6848 23.3162Z" fill="#3579F4"/>
<path fill-rule="evenodd" clip-rule="evenodd" d="M21.5719 0.00313787L21.6248 0.0129998L21.6768 0.0291375L21.7261 0.051551L21.7723 0.0793437L21.8149 0.112516L21.8534 0.151067L21.8866 0.193652L21.9144 0.239824L21.9368 0.289134L21.9529 0.341133L21.9628 0.394029L21.9659 0.44827L21.9628 0.50251L21.9529 0.555406L21.9368 0.607405L21.9144 0.656715L21.8866 0.702887L21.8534 0.745472L21.8149 0.784023L21.7723 0.817195L21.7261 0.844988L21.6768 0.867401L21.6248 0.883539L21.5719 0.893401L21.5177 0.896539H4.48343L4.42919 0.893401L4.37629 0.883539L4.32429 0.867401L4.27498 0.844988L4.22881 0.817195L4.18622 0.784023L4.14767 0.745472L4.1145 0.702887L4.08671 0.656715L4.06429 0.607405L4.04816 0.555406L4.03829 0.50251L4.03516 0.44827L4.03829 0.394029L4.04816 0.341133L4.06429 0.289134L4.08671 0.239824L4.1145 0.193652L4.14767 0.151067L4.18622 0.112516L4.22881 0.0793437L4.27498 0.051551L4.32429 0.0291375L4.37629 0.0129998L4.42919 0.00313787L4.48343 0H21.5177L21.5719 0.00313787Z" fill="#3579F4"/>
<path fill-rule="evenodd" clip-rule="evenodd" d="M25.615 5.38437L25.6773 5.39781L25.7374 5.42023L25.7934 5.45071L25.8445 5.48881L25.8898 5.53409L25.9279 5.58519L25.9588 5.64078L25.9813 5.70084L25.9947 5.76315L25.9996 5.82681L25.9952 5.89046L25.9822 5.95277L25.9597 6.01284L25.9297 6.06887L20.7912 14.1436L20.7531 14.1947L20.7078 14.2404L20.6567 14.2789L20.6007 14.3099L20.5411 14.3323L20.4787 14.3462L20.4146 14.3511L20.351 14.3466L20.2887 14.3336L20.2286 14.3112L20.1721 14.2812L20.121 14.2431L20.0753 14.1978L20.0368 14.1467L20.0058 14.0907L19.9834 14.031L19.9695 13.9687L19.9646 13.9046L19.9691 13.841L19.9821 13.7787L20.0045 13.7186L20.0345 13.6621L24.7346 6.27642H1.26502L12.9998 24.7169L16.9105 18.5716L16.9486 18.5205L16.9939 18.4747L17.045 18.4362L17.101 18.4053L17.1607 18.3828L17.223 18.3689L17.2871 18.364L17.3507 18.3685L17.413 18.3815L17.4731 18.4039L17.5296 18.4339L17.5807 18.472L17.6264 18.5173L17.665 18.5684L17.6959 18.6245L17.7183 18.6841L17.7322 18.7464L17.7371 18.8105L17.7326 18.8741L17.7196 18.9365L17.6972 18.9965L17.6672 19.053L13.3782 25.7927L13.3396 25.8443L13.2943 25.89L13.2432 25.9286L13.1867 25.9595L13.1267 25.9819L13.0639 25.9958L12.9998 26.0003L12.9357 25.9958L12.873 25.9819L12.8129 25.9595L12.7564 25.9286L12.7053 25.89L12.66 25.8443L12.6215 25.7927L0.06993 6.06887L0.039896 6.01284L0.0174825 5.95277L0.00448269 5.89046L0 5.82681L0.00493093 5.76315L0.018379 5.70084L0.0407926 5.64078L0.0717232 5.58519L0.109826 5.53409L0.155101 5.48881L0.206204 5.45071L0.262238 5.42023L0.322306 5.39781L0.384615 5.38437L0.44827 5.37988H25.5514L25.615 5.38437Z" fill="#3579F4"/>
<path fill-rule="evenodd" clip-rule="evenodd" d="M17.5287 5.38123L17.5869 5.39064L17.643 5.40723L17.6963 5.43099L17.7465 5.46192L17.7918 5.49867L17.8322 5.54126L17.8667 5.58878L17.8949 5.64033L17.9155 5.69502L17.9294 5.75239L17.9353 5.81067L17.9339 5.86894L17.9245 5.92722L13.4418 25.6511L13.4257 25.7062L13.4024 25.7587L13.3728 25.808L13.3369 25.8528L13.2957 25.8927L13.2495 25.9272L13.1993 25.9555L13.1459 25.977L13.0904 25.9918L13.0334 25.9989H12.976L12.9191 25.9918L12.8635 25.977L12.8102 25.9555L12.76 25.9272L12.7138 25.8927L12.6726 25.8528L12.6367 25.808L12.6071 25.7587L12.5838 25.7062L12.5677 25.6511L8.08498 5.92722L8.07556 5.86894L8.07422 5.81067L8.08005 5.75239L8.09394 5.69502L8.11456 5.64033L8.1428 5.58878L8.17732 5.54126L8.21766 5.49867L8.26294 5.46192L8.31315 5.43099L8.36649 5.40723L8.42252 5.39064L8.4808 5.38123L8.53907 5.37988L8.59735 5.38571L8.65473 5.39961L8.70942 5.42023L8.76097 5.44847L8.80848 5.48298L8.85107 5.52333L8.88783 5.5686L8.91876 5.61881L8.94252 5.67215L8.9591 5.72819L13.0047 23.529L17.0504 5.72819L17.067 5.67215L17.0907 5.61881L17.1216 5.5686L17.1584 5.52333L17.201 5.48298L17.2485 5.44847L17.3001 5.42023L17.3547 5.39961L17.4121 5.38571L17.4704 5.37988L17.5287 5.38123Z" fill="#3579F4"/>
<path fill-rule="evenodd" clip-rule="evenodd" d="M1.80547 16.5859L1.81443 16.5864L1.8234 16.5868L1.83192 16.5877L1.84088 16.5886L1.84985 16.5895L1.85881 16.5909L1.86733 16.5922L1.87629 16.594L1.88481 16.5958L1.89378 16.5976L1.90229 16.5998L1.91081 16.6021L1.91933 16.6043L1.92785 16.607L1.93636 16.6097L1.94488 16.6128L1.9534 16.616L1.96147 16.6191L1.96953 16.6227L1.97805 16.6263L1.98612 16.6299L1.99374 16.6339L2.00181 16.6379L2.00988 16.6424L2.0175 16.6469L2.02512 16.6514L2.03274 16.6559L2.04036 16.6608L2.04753 16.6657L2.05471 16.6711L2.06188 16.6765L2.06905 16.6819L2.07577 16.6872L2.08295 16.6931L2.08967 16.6989L2.09595 16.7047L2.10267 16.711L2.10895 16.7173L2.55722 17.1655L2.56349 17.1718L2.56977 17.1785L2.57559 17.1848L2.58142 17.1916L2.58725 17.1987L2.59263 17.2054L2.59801 17.2126L2.60339 17.2198L2.60877 17.227L2.6137 17.2341L2.61863 17.2418L2.62311 17.2494L2.62759 17.257L2.63208 17.2646L2.63656 17.2727L2.64059 17.2808L2.64463 17.2884L2.64821 17.2964L2.6518 17.305L2.65539 17.313L2.65852 17.3211L2.66166 17.3296L2.6648 17.3381L2.66749 17.3467L2.67018 17.3552L2.67242 17.3637L2.67466 17.3722L2.6769 17.3807L2.6787 17.3897L2.68049 17.3982L2.68228 17.4072L2.68363 17.4157L2.68497 17.4246L2.68587 17.4336L2.68677 17.4426L2.68766 17.4511L2.68811 17.4601L2.68856 17.469V17.478V17.487V17.4959L2.68811 17.5049L2.68766 17.5139L2.68677 17.5224L2.68587 17.5313L2.68497 17.5403L2.68363 17.5493L2.68228 17.5578L2.68049 17.5668L2.6787 17.5753L2.6769 17.5842L2.67466 17.5928L2.67242 17.6013L2.67018 17.6098L2.66749 17.6183L2.6648 17.6268L2.66166 17.6353L2.65852 17.6439L2.65539 17.6519L2.6518 17.66L2.64821 17.6685L2.64463 17.6766L2.64059 17.6842L2.63656 17.6923L2.63208 17.7003L2.62759 17.708L2.62311 17.7156L2.61863 17.7232L2.6137 17.7308L2.60877 17.738L2.60339 17.7452L2.59801 17.7523L2.59263 17.7595L2.58725 17.7662L2.58142 17.7734L2.57559 17.7801L2.56977 17.7864L2.56349 17.7931L2.55722 17.7994L2.55094 17.8057L2.54422 17.812L2.53794 17.8178L2.53122 17.8236L2.52404 17.8294L2.51732 17.8348L2.51015 17.8402L2.50298 17.8456L2.4958 17.851L2.48863 17.8559L2.48101 17.8608L2.47339 17.8653L2.46577 17.8698L2.45815 17.8743L2.45008 17.8787L2.44201 17.8828L2.43439 17.8868L2.42632 17.8904L2.4178 17.894L2.40974 17.8976L2.40167 17.9007L2.39315 17.9038L2.38463 17.907L2.37612 17.9097L2.3676 17.9124L2.35908 17.9146L2.35056 17.9169L2.34205 17.9191L2.33308 17.9209L2.32456 17.9227L2.3156 17.9245L2.30708 17.9258L2.29812 17.9272L2.28915 17.9281L2.28019 17.929L2.27167 17.9299L2.2627 17.9303L2.25374 17.9307H2.24477H2.23581H2.22684L2.21788 17.9303L2.20891 17.9299L2.20039 17.929L2.19143 17.9281L2.18246 17.9272L2.1735 17.9258L2.16498 17.9245L2.15601 17.9227L2.1475 17.9209L2.13853 17.9191L2.13001 17.9169L2.1215 17.9146L2.11298 17.9124L2.10446 17.9097L2.09595 17.907L2.08743 17.9038L2.07891 17.9007L2.07084 17.8976L2.06277 17.894L2.05426 17.8904L2.04619 17.8868L2.03857 17.8828L2.0305 17.8787L2.02243 17.8743L2.01481 17.8698L2.00719 17.8653L1.99957 17.8608L1.99195 17.8559L1.98478 17.851L1.9776 17.8456L1.97043 17.8402L1.96326 17.8348L1.95653 17.8294L1.94936 17.8236L1.94264 17.8178L1.93636 17.812L1.92964 17.8057L1.92336 17.7994L1.47509 17.3511L1.46882 17.3449L1.46254 17.3381L1.45671 17.3319L1.45089 17.3251L1.44506 17.318L1.43968 17.3112L1.4343 17.3041L1.42892 17.2969L1.42354 17.2897L1.41861 17.2825L1.41368 17.2749L1.4092 17.2673L1.40471 17.2597L1.40023 17.2521L1.39575 17.244L1.39171 17.2359L1.38768 17.2283L1.38409 17.2202L1.38051 17.2117L1.37692 17.2037L1.37378 17.1956L1.37065 17.1871L1.36751 17.1785L1.36482 17.17L1.36213 17.1615L1.35989 17.153L1.35765 17.1445L1.35541 17.136L1.35361 17.127L1.35182 17.1185L1.35003 17.1095L1.34868 17.101L1.34734 17.092L1.34644 17.0831L1.34554 17.0741L1.34465 17.0656L1.3442 17.0566L1.34375 17.0477V17.0387V17.0297V17.0208L1.3442 17.0118L1.34465 17.0028L1.34554 16.9943L1.34644 16.9853L1.34734 16.9764L1.34868 16.9674L1.35003 16.9589L1.35182 16.9499L1.35361 16.9414L1.35541 16.9324L1.35765 16.9239L1.35989 16.9154L1.36213 16.9069L1.36482 16.8984L1.36751 16.8899L1.37065 16.8813L1.37378 16.8728L1.37692 16.8648L1.38051 16.8567L1.38409 16.8482L1.38768 16.8401L1.39171 16.8325L1.39575 16.8244L1.40023 16.8163L1.40471 16.8087L1.4092 16.8011L1.41368 16.7935L1.41861 16.7859L1.42354 16.7787L1.42892 16.7715L1.4343 16.7643L1.43968 16.7572L1.44506 16.7505L1.45089 16.7433L1.45671 16.7366L1.46254 16.7303L1.46882 16.7236L1.47509 16.7173L1.48137 16.711L1.48809 16.7047L1.49437 16.6989L1.50109 16.6931L1.50826 16.6872L1.51499 16.6819L1.52216 16.6765L1.52933 16.6711L1.53651 16.6657L1.54368 16.6608L1.5513 16.6559L1.55892 16.6514L1.56654 16.6469L1.57416 16.6424L1.58223 16.6379L1.5903 16.6339L1.59792 16.6299L1.60599 16.6263L1.6145 16.6227L1.62257 16.6191L1.63064 16.616L1.63916 16.6128L1.64768 16.6097L1.65619 16.607L1.66471 16.6043L1.67323 16.6021L1.68175 16.5998L1.69026 16.5976L1.69923 16.5958L1.70774 16.594L1.71671 16.5922L1.72523 16.5909L1.73419 16.5895L1.74316 16.5886L1.75212 16.5877L1.76064 16.5868L1.76961 16.5864L1.77857 16.5859H1.78754H1.7965H1.80547Z" fill="#3579F4"/>
<path fill-rule="evenodd" clip-rule="evenodd" d="M3.60039 18.3799L3.60936 18.3803L3.61832 18.3808L3.62684 18.3817L3.6358 18.3826L3.64477 18.3835L3.65373 18.3848L3.66225 18.3862L3.67122 18.388L3.67973 18.3897L3.6887 18.3915L3.69722 18.3938L3.70573 18.396L3.71425 18.3983L3.72277 18.401L3.73128 18.4036L3.7398 18.4068L3.74832 18.4099L3.75639 18.4131L3.76446 18.4166L3.77297 18.4202L3.78104 18.4238L3.78866 18.4278L3.79673 18.4319L3.8048 18.4364L3.81242 18.4408L3.82004 18.4453L3.82766 18.4498L3.83528 18.4547L3.84245 18.4597L3.84963 18.4651L3.8568 18.4704L3.86397 18.4758L3.8707 18.4812L3.87787 18.487L3.88459 18.4928L3.89087 18.4987L3.89759 18.5049L3.90387 18.5112L4.35214 18.9595L4.35841 18.9658L4.36469 18.9725L4.37052 18.9788L4.37634 18.9855L4.38217 18.9927L4.38755 18.9994L4.39293 19.0066L4.39831 19.0137L4.40369 19.0209L4.40862 19.0281L4.41355 19.0357L4.41803 19.0433L4.42252 19.0509L4.427 19.0586L4.43148 19.0666L4.43552 19.0747L4.43955 19.0823L4.44314 19.0904L4.44672 19.0989L4.45031 19.107L4.45345 19.115L4.45658 19.1236L4.45972 19.1321L4.46241 19.1406L4.4651 19.1491L4.46734 19.1576L4.46958 19.1661L4.47183 19.1747L4.47362 19.1836L4.47541 19.1921L4.4772 19.2011L4.47855 19.2096L4.47989 19.2186L4.48079 19.2276L4.48169 19.2365L4.48258 19.245L4.48303 19.254L4.48348 19.263V19.2719V19.2809V19.2899L4.48303 19.2988L4.48258 19.3078L4.48169 19.3163L4.48079 19.3253L4.47989 19.3342L4.47855 19.3432L4.4772 19.3517L4.47541 19.3607L4.47362 19.3692L4.47183 19.3782L4.46958 19.3867L4.46734 19.3952L4.4651 19.4037L4.46241 19.4122L4.45972 19.4208L4.45658 19.4293L4.45345 19.4378L4.45031 19.4459L4.44672 19.4539L4.44314 19.4625L4.43955 19.4705L4.43552 19.4781L4.43148 19.4862L4.427 19.4943L4.42252 19.5019L4.41803 19.5095L4.41355 19.5171L4.40862 19.5248L4.40369 19.5319L4.39831 19.5391L4.39293 19.5463L4.38755 19.5535L4.38217 19.5602L4.37634 19.5673L4.37052 19.5741L4.36469 19.5803L4.35841 19.5871L4.35214 19.5933L4.34586 19.5996L4.33914 19.6059L4.33286 19.6117L4.32614 19.6176L4.31897 19.6234L4.31224 19.6288L4.30507 19.6341L4.2979 19.6395L4.29072 19.6449L4.28355 19.6498L4.27593 19.6548L4.26831 19.6592L4.26069 19.6637L4.25307 19.6682L4.245 19.6727L4.23693 19.6767L4.22931 19.6808L4.22124 19.6843L4.21273 19.6879L4.20466 19.6915L4.19659 19.6947L4.18807 19.6978L4.17955 19.7009L4.17104 19.7036L4.16252 19.7063L4.154 19.7086L4.14549 19.7108L4.13697 19.713L4.128 19.7148L4.11949 19.7166L4.11052 19.7184L4.102 19.7198L4.09304 19.7211L4.08407 19.722L4.07511 19.7229L4.06659 19.7238L4.05762 19.7242L4.04866 19.7247H4.03969H4.03073H4.02176L4.0128 19.7242L4.00383 19.7238L3.99532 19.7229L3.98635 19.722L3.97738 19.7211L3.96842 19.7198L3.9599 19.7184L3.95094 19.7166L3.94242 19.7148L3.93345 19.713L3.92494 19.7108L3.91642 19.7086L3.9079 19.7063L3.89939 19.7036L3.89087 19.7009L3.88235 19.6978L3.87383 19.6947L3.86577 19.6915L3.8577 19.6879L3.84918 19.6843L3.84111 19.6808L3.83349 19.6767L3.82542 19.6727L3.81735 19.6682L3.80973 19.6637L3.80211 19.6592L3.79449 19.6548L3.78687 19.6498L3.7797 19.6449L3.77252 19.6395L3.76535 19.6341L3.75818 19.6288L3.75146 19.6234L3.74428 19.6176L3.73756 19.6117L3.73128 19.6059L3.72456 19.5996L3.71828 19.5933L3.27001 19.1451L3.26374 19.1388L3.25746 19.1321L3.25164 19.1258L3.24581 19.1191L3.23998 19.1119L3.2346 19.1052L3.22922 19.098L3.22384 19.0908L3.21846 19.0837L3.21353 19.0765L3.2086 19.0689L3.20412 19.0613L3.19964 19.0536L3.19515 19.046L3.19067 19.0379L3.18664 19.0299L3.1826 19.0223L3.17902 19.0142L3.17543 19.0057L3.17184 18.9976L3.16871 18.9895L3.16557 18.981L3.16243 18.9725L3.15974 18.964L3.15705 18.9555L3.15481 18.9469L3.15257 18.9384L3.15033 18.9299L3.14853 18.9209L3.14674 18.9124L3.14495 18.9035L3.1436 18.8949L3.14226 18.886L3.14136 18.877L3.14046 18.868L3.13957 18.8595L3.13912 18.8506L3.13867 18.8416V18.8326V18.8237V18.8147L3.13912 18.8057L3.13957 18.7968L3.14046 18.7883L3.14136 18.7793L3.14226 18.7703L3.1436 18.7614L3.14495 18.7528L3.14674 18.7439L3.14853 18.7354L3.15033 18.7264L3.15257 18.7179L3.15481 18.7094L3.15705 18.7008L3.15974 18.6923L3.16243 18.6838L3.16557 18.6753L3.16871 18.6668L3.17184 18.6587L3.17543 18.6506L3.17902 18.6421L3.1826 18.6341L3.18664 18.6264L3.19067 18.6184L3.19515 18.6103L3.19964 18.6027L3.20412 18.5951L3.2086 18.5874L3.21353 18.5798L3.21846 18.5726L3.22384 18.5655L3.22922 18.5583L3.2346 18.5511L3.23998 18.5444L3.24581 18.5372L3.25164 18.5305L3.25746 18.5242L3.26374 18.5175L3.27001 18.5112L3.27629 18.5049L3.28301 18.4987L3.28929 18.4928L3.29601 18.487L3.30319 18.4812L3.30991 18.4758L3.31708 18.4704L3.32426 18.4651L3.33143 18.4597L3.3386 18.4547L3.34622 18.4498L3.35384 18.4453L3.36146 18.4408L3.36908 18.4364L3.37715 18.4319L3.38522 18.4278L3.39284 18.4238L3.40091 18.4202L3.40943 18.4166L3.4175 18.4131L3.42556 18.4099L3.43408 18.4068L3.4426 18.4036L3.45112 18.401L3.45963 18.3983L3.46815 18.396L3.47667 18.3938L3.48518 18.3915L3.49415 18.3897L3.50267 18.388L3.51163 18.3862L3.52015 18.3848L3.52911 18.3835L3.53808 18.3826L3.54705 18.3817L3.55556 18.3808L3.56453 18.3803L3.57349 18.3799H3.58246H3.59142H3.60039Z" fill="#3579F4"/>
<path fill-rule="evenodd" clip-rule="evenodd" d="M2.25374 18.3799L2.2627 18.3803L2.27167 18.3808L2.28019 18.3817L2.28915 18.3826L2.29812 18.3835L2.30708 18.3848L2.3156 18.3862L2.32456 18.388L2.33308 18.3897L2.34205 18.3915L2.35056 18.3938L2.35908 18.396L2.3676 18.3983L2.37612 18.401L2.38463 18.4036L2.39315 18.4068L2.40167 18.4099L2.40974 18.4131L2.4178 18.4166L2.42632 18.4202L2.43439 18.4238L2.44201 18.4278L2.45008 18.4319L2.45815 18.4364L2.46577 18.4408L2.47339 18.4453L2.48101 18.4498L2.48863 18.4547L2.4958 18.4597L2.50298 18.4651L2.51015 18.4704L2.51732 18.4758L2.52404 18.4812L2.53122 18.487L2.53794 18.4928L2.54422 18.4987L2.55094 18.5049L2.55722 18.5112L2.56349 18.5175L2.56977 18.5242L2.57559 18.5305L2.58142 18.5372L2.58725 18.5444L2.59263 18.5511L2.59801 18.5583L2.60339 18.5655L2.60877 18.5726L2.6137 18.5798L2.61863 18.5874L2.62311 18.5951L2.62759 18.6027L2.63208 18.6103L2.63656 18.6184L2.64059 18.6264L2.64463 18.6341L2.64821 18.6421L2.6518 18.6506L2.65539 18.6587L2.65852 18.6668L2.66166 18.6753L2.6648 18.6838L2.66749 18.6923L2.67018 18.7008L2.67242 18.7094L2.67466 18.7179L2.6769 18.7264L2.6787 18.7354L2.68049 18.7439L2.68228 18.7528L2.68363 18.7614L2.68497 18.7703L2.68587 18.7793L2.68677 18.7883L2.68766 18.7968L2.68811 18.8057L2.68856 18.8147V18.8237V18.8326V18.8416L2.68811 18.8506L2.68766 18.8595L2.68677 18.868L2.68587 18.877L2.68497 18.886L2.68363 18.8949L2.68228 18.9035L2.68049 18.9124L2.6787 18.9209L2.6769 18.9299L2.67466 18.9384L2.67242 18.9469L2.67018 18.9555L2.66749 18.964L2.6648 18.9725L2.66166 18.981L2.65852 18.9895L2.65539 18.9976L2.6518 19.0057L2.64821 19.0142L2.64463 19.0223L2.64059 19.0299L2.63656 19.0379L2.63208 19.046L2.62759 19.0536L2.62311 19.0613L2.61863 19.0689L2.6137 19.0765L2.60877 19.0837L2.60339 19.0908L2.59801 19.098L2.59263 19.1052L2.58725 19.1119L2.58142 19.1191L2.57559 19.1258L2.56977 19.1321L2.56349 19.1388L2.55722 19.1451L2.10895 19.5933L2.10267 19.5996L2.09595 19.6059L2.08967 19.6117L2.08295 19.6176L2.07577 19.6234L2.06905 19.6288L2.06188 19.6341L2.05471 19.6395L2.04753 19.6449L2.04036 19.6498L2.03274 19.6548L2.02512 19.6592L2.0175 19.6637L2.00988 19.6682L2.00181 19.6727L1.99374 19.6767L1.98612 19.6808L1.97805 19.6843L1.96953 19.6879L1.96147 19.6915L1.9534 19.6947L1.94488 19.6978L1.93636 19.7009L1.92785 19.7036L1.91933 19.7063L1.91081 19.7086L1.90229 19.7108L1.89378 19.713L1.88481 19.7148L1.87629 19.7166L1.86733 19.7184L1.85881 19.7198L1.84985 19.7211L1.84088 19.722L1.83192 19.7229L1.8234 19.7238L1.81443 19.7242L1.80547 19.7247H1.7965H1.78754H1.77857L1.76961 19.7242L1.76064 19.7238L1.75212 19.7229L1.74316 19.722L1.73419 19.7211L1.72523 19.7198L1.71671 19.7184L1.70774 19.7166L1.69923 19.7148L1.69026 19.713L1.68175 19.7108L1.67323 19.7086L1.66471 19.7063L1.65619 19.7036L1.64768 19.7009L1.63916 19.6978L1.63064 19.6947L1.62257 19.6915L1.6145 19.6879L1.60599 19.6843L1.59792 19.6808L1.5903 19.6767L1.58223 19.6727L1.57416 19.6682L1.56654 19.6637L1.55892 19.6592L1.5513 19.6548L1.54368 19.6498L1.53651 19.6449L1.52933 19.6395L1.52216 19.6341L1.51499 19.6288L1.50826 19.6234L1.50109 19.6176L1.49437 19.6117L1.48809 19.6059L1.48137 19.5996L1.47509 19.5933L1.46882 19.5871L1.46254 19.5803L1.45671 19.5741L1.45089 19.5673L1.44506 19.5602L1.43968 19.5535L1.4343 19.5463L1.42892 19.5391L1.42354 19.5319L1.41861 19.5248L1.41368 19.5171L1.4092 19.5095L1.40471 19.5019L1.40023 19.4943L1.39575 19.4862L1.39171 19.4781L1.38768 19.4705L1.38409 19.4625L1.38051 19.4539L1.37692 19.4459L1.37378 19.4378L1.37065 19.4293L1.36751 19.4208L1.36482 19.4122L1.36213 19.4037L1.35989 19.3952L1.35765 19.3867L1.35541 19.3782L1.35361 19.3692L1.35182 19.3607L1.35003 19.3517L1.34868 19.3432L1.34734 19.3342L1.34644 19.3253L1.34554 19.3163L1.34465 19.3078L1.3442 19.2988L1.34375 19.2899V19.2809V19.2719V19.263L1.3442 19.254L1.34465 19.245L1.34554 19.2365L1.34644 19.2276L1.34734 19.2186L1.34868 19.2096L1.35003 19.2011L1.35182 19.1921L1.35361 19.1836L1.35541 19.1747L1.35765 19.1661L1.35989 19.1576L1.36213 19.1491L1.36482 19.1406L1.36751 19.1321L1.37065 19.1236L1.37378 19.115L1.37692 19.107L1.38051 19.0989L1.38409 19.0904L1.38768 19.0823L1.39171 19.0747L1.39575 19.0666L1.40023 19.0586L1.40471 19.0509L1.4092 19.0433L1.41368 19.0357L1.41861 19.0281L1.42354 19.0209L1.42892 19.0137L1.4343 19.0066L1.43968 18.9994L1.44506 18.9927L1.45089 18.9855L1.45671 18.9788L1.46254 18.9725L1.46882 18.9658L1.47509 18.9595L1.92336 18.5112L1.92964 18.5049L1.93636 18.4987L1.94264 18.4928L1.94936 18.487L1.95653 18.4812L1.96326 18.4758L1.97043 18.4704L1.9776 18.4651L1.98478 18.4597L1.99195 18.4547L1.99957 18.4498L2.00719 18.4453L2.01481 18.4408L2.02243 18.4364L2.0305 18.4319L2.03857 18.4278L2.04619 18.4238L2.05426 18.4202L2.06277 18.4166L2.07084 18.4131L2.07891 18.4099L2.08743 18.4068L2.09595 18.4036L2.10446 18.401L2.11298 18.3983L2.1215 18.396L2.13001 18.3938L2.13853 18.3915L2.1475 18.3897L2.15601 18.388L2.16498 18.3862L2.1735 18.3848L2.18246 18.3835L2.19143 18.3826L2.20039 18.3817L2.20891 18.3808L2.21788 18.3803L2.22684 18.3799H2.23581H2.24477H2.25374Z" fill="#3579F4"/>
<path fill-rule="evenodd" clip-rule="evenodd" d="M4.04866 16.5859L4.05762 16.5864L4.06659 16.5868L4.07511 16.5877L4.08407 16.5886L4.09304 16.5895L4.102 16.5909L4.11052 16.5922L4.11949 16.594L4.128 16.5958L4.13697 16.5976L4.14549 16.5998L4.154 16.6021L4.16252 16.6043L4.17104 16.607L4.17955 16.6097L4.18807 16.6128L4.19659 16.616L4.20466 16.6191L4.21273 16.6227L4.22124 16.6263L4.22931 16.6299L4.23693 16.6339L4.245 16.6379L4.25307 16.6424L4.26069 16.6469L4.26831 16.6514L4.27593 16.6559L4.28355 16.6608L4.29072 16.6657L4.2979 16.6711L4.30507 16.6765L4.31224 16.6819L4.31897 16.6872L4.32614 16.6931L4.33286 16.6989L4.33914 16.7047L4.34586 16.711L4.35214 16.7173L4.35841 16.7236L4.36469 16.7303L4.37052 16.7366L4.37634 16.7433L4.38217 16.7505L4.38755 16.7572L4.39293 16.7643L4.39831 16.7715L4.40369 16.7787L4.40862 16.7859L4.41355 16.7935L4.41803 16.8011L4.42252 16.8087L4.427 16.8163L4.43148 16.8244L4.43552 16.8325L4.43955 16.8401L4.44314 16.8482L4.44672 16.8567L4.45031 16.8648L4.45345 16.8728L4.45658 16.8813L4.45972 16.8899L4.46241 16.8984L4.4651 16.9069L4.46734 16.9154L4.46958 16.9239L4.47183 16.9324L4.47362 16.9414L4.47541 16.9499L4.4772 16.9589L4.47855 16.9674L4.47989 16.9764L4.48079 16.9853L4.48169 16.9943L4.48258 17.0028L4.48303 17.0118L4.48348 17.0208V17.0297V17.0387V17.0477L4.48303 17.0566L4.48258 17.0656L4.48169 17.0741L4.48079 17.0831L4.47989 17.092L4.47855 17.101L4.4772 17.1095L4.47541 17.1185L4.47362 17.127L4.47183 17.136L4.46958 17.1445L4.46734 17.153L4.4651 17.1615L4.46241 17.17L4.45972 17.1785L4.45658 17.1871L4.45345 17.1956L4.45031 17.2037L4.44672 17.2117L4.44314 17.2202L4.43955 17.2283L4.43552 17.2359L4.43148 17.244L4.427 17.2521L4.42252 17.2597L4.41803 17.2673L4.41355 17.2749L4.40862 17.2825L4.40369 17.2897L4.39831 17.2969L4.39293 17.3041L4.38755 17.3112L4.38217 17.318L4.37634 17.3251L4.37052 17.3319L4.36469 17.3381L4.35841 17.3449L4.35214 17.3511L3.90387 17.7994L3.89759 17.8057L3.89087 17.812L3.88459 17.8178L3.87787 17.8236L3.8707 17.8294L3.86397 17.8348L3.8568 17.8402L3.84963 17.8456L3.84245 17.851L3.83528 17.8559L3.82766 17.8608L3.82004 17.8653L3.81242 17.8698L3.8048 17.8743L3.79673 17.8787L3.78866 17.8828L3.78104 17.8868L3.77297 17.8904L3.76446 17.894L3.75639 17.8976L3.74832 17.9007L3.7398 17.9038L3.73128 17.907L3.72277 17.9097L3.71425 17.9124L3.70573 17.9146L3.69722 17.9169L3.6887 17.9191L3.67973 17.9209L3.67122 17.9227L3.66225 17.9245L3.65373 17.9258L3.64477 17.9272L3.6358 17.9281L3.62684 17.929L3.61832 17.9299L3.60936 17.9303L3.60039 17.9307H3.59142H3.58246H3.57349L3.56453 17.9303L3.55556 17.9299L3.54705 17.929L3.53808 17.9281L3.52911 17.9272L3.52015 17.9258L3.51163 17.9245L3.50267 17.9227L3.49415 17.9209L3.48518 17.9191L3.47667 17.9169L3.46815 17.9146L3.45963 17.9124L3.45112 17.9097L3.4426 17.907L3.43408 17.9038L3.42556 17.9007L3.4175 17.8976L3.40943 17.894L3.40091 17.8904L3.39284 17.8868L3.38522 17.8828L3.37715 17.8787L3.36908 17.8743L3.36146 17.8698L3.35384 17.8653L3.34622 17.8608L3.3386 17.8559L3.33143 17.851L3.32426 17.8456L3.31708 17.8402L3.30991 17.8348L3.30319 17.8294L3.29601 17.8236L3.28929 17.8178L3.28301 17.812L3.27629 17.8057L3.27001 17.7994L3.26374 17.7931L3.25746 17.7864L3.25164 17.7801L3.24581 17.7734L3.23998 17.7662L3.2346 17.7595L3.22922 17.7523L3.22384 17.7452L3.21846 17.738L3.21353 17.7308L3.2086 17.7232L3.20412 17.7156L3.19964 17.708L3.19515 17.7003L3.19067 17.6923L3.18664 17.6842L3.1826 17.6766L3.17902 17.6685L3.17543 17.66L3.17184 17.6519L3.16871 17.6439L3.16557 17.6353L3.16243 17.6268L3.15974 17.6183L3.15705 17.6098L3.15481 17.6013L3.15257 17.5928L3.15033 17.5842L3.14853 17.5753L3.14674 17.5668L3.14495 17.5578L3.1436 17.5493L3.14226 17.5403L3.14136 17.5313L3.14046 17.5224L3.13957 17.5139L3.13912 17.5049L3.13867 17.4959V17.487V17.478V17.469L3.13912 17.4601L3.13957 17.4511L3.14046 17.4426L3.14136 17.4336L3.14226 17.4246L3.1436 17.4157L3.14495 17.4072L3.14674 17.3982L3.14853 17.3897L3.15033 17.3807L3.15257 17.3722L3.15481 17.3637L3.15705 17.3552L3.15974 17.3467L3.16243 17.3381L3.16557 17.3296L3.16871 17.3211L3.17184 17.313L3.17543 17.305L3.17902 17.2964L3.1826 17.2884L3.18664 17.2808L3.19067 17.2727L3.19515 17.2646L3.19964 17.257L3.20412 17.2494L3.2086 17.2418L3.21353 17.2341L3.21846 17.227L3.22384 17.2198L3.22922 17.2126L3.2346 17.2054L3.23998 17.1987L3.24581 17.1916L3.25164 17.1848L3.25746 17.1785L3.26374 17.1718L3.27001 17.1655L3.71828 16.7173L3.72456 16.711L3.73128 16.7047L3.73756 16.6989L3.74428 16.6931L3.75146 16.6872L3.75818 16.6819L3.76535 16.6765L3.77252 16.6711L3.7797 16.6657L3.78687 16.6608L3.79449 16.6559L3.80211 16.6514L3.80973 16.6469L3.81735 16.6424L3.82542 16.6379L3.83349 16.6339L3.84111 16.6299L3.84918 16.6263L3.8577 16.6227L3.86577 16.6191L3.87383 16.616L3.88235 16.6128L3.89087 16.6097L3.89939 16.607L3.9079 16.6043L3.91642 16.6021L3.92494 16.5998L3.93345 16.5976L3.94242 16.5958L3.95094 16.594L3.9599 16.5922L3.96842 16.5909L3.97738 16.5895L3.98635 16.5886L3.99532 16.5877L4.00383 16.5868L4.0128 16.5864L4.02176 16.5859H4.03073H4.03969H4.04866Z" fill="#3579F4"/>
</svg>
