<svg width="1019" height="337" viewBox="0 0 1019 337" fill="none" xmlns="http://www.w3.org/2000/svg">
<g clip-path="url(#clip0_56_467)">
<path d="M68.5775 184.152L68.5675 188.122L68.5775 192.002C68.5775 195.032 68.5875 198.052 68.5675 201.077C68.5325 206.132 65.0125 209.837 60.1775 209.882H60.0875C57.7875 209.882 55.6675 209.037 54.1075 207.497C52.4775 205.902 51.5825 203.667 51.5625 201.212C51.5175 192.732 51.5075 183.828 51.5625 174.733C51.5875 169.743 55.2675 165.972 60.1175 166.017C64.9775 166.037 68.5275 169.722 68.5525 174.787C68.5775 177.912 68.5725 181.027 68.5725 184.152H68.5775Z" fill="white"/>
<path d="M267.508 131.657L267.193 151.252H213.818C200.778 151.252 195.218 156.817 195.218 169.847V252.357H174.933V170.317C174.933 145.392 188.658 131.662 213.583 131.662H267.513L267.508 131.657Z" fill="white"/>
<path d="M418.328 131.657H330.968V151.252H418.098C431.128 151.252 436.693 156.817 436.693 169.847V180.357L358.313 180.137C335.193 180.137 319.663 192.972 319.663 212.087V220.637C319.663 229.637 323.273 237.692 329.838 243.322C336.733 249.227 346.573 252.357 358.308 252.357H418.323C443.248 252.357 456.973 238.632 456.973 213.707V170.312C456.973 145.387 443.248 131.657 418.323 131.657H418.328ZM418.098 232.767H358.543C347.073 232.767 339.948 228.297 339.948 221.092V211.627C339.948 204.397 347.248 199.722 358.533 199.722L436.693 199.952V214.162C436.693 227.202 431.128 232.767 418.098 232.767Z" fill="white"/>
<path d="M643.723 170.312V252.352H623.438V169.842C623.438 156.812 617.873 151.247 604.838 151.247H560.748C547.718 151.247 542.153 156.812 542.153 169.842V252.352H521.868V170.312C521.868 145.387 535.593 131.657 560.518 131.657H605.073C629.998 131.657 643.723 145.392 643.723 170.312Z" fill="white"/>
<path d="M732.583 85.4976H708.603V109.243H732.583V85.4976Z" fill="white"/>
<path d="M730.738 131.658H710.453V252.358H730.738V131.658Z" fill="white"/>
<path d="M153.113 324.148L160.583 323.478C161.033 325.793 161.943 327.488 163.318 328.573C164.693 329.658 166.548 330.198 168.883 330.198C171.358 330.198 173.218 329.718 174.473 328.753C175.728 327.788 176.353 326.658 176.353 325.368C176.353 324.538 176.088 323.833 175.563 323.253C175.033 322.668 174.113 322.163 172.803 321.733C171.903 321.448 169.853 320.938 166.653 320.203C162.538 319.263 159.648 318.103 157.988 316.733C155.653 314.803 154.488 312.448 154.488 309.673C154.488 307.888 155.038 306.218 156.133 304.663C157.233 303.108 158.813 301.923 160.878 301.113C162.943 300.298 165.438 299.893 168.363 299.893C173.133 299.893 176.728 300.858 179.138 302.788C181.548 304.718 182.818 307.293 182.938 310.513L175.263 310.823C174.933 309.023 174.228 307.723 173.148 306.933C172.068 306.143 170.448 305.748 168.283 305.748C166.118 305.748 164.308 306.173 163.043 307.013C162.228 307.553 161.823 308.278 161.823 309.188C161.823 310.018 162.203 310.728 162.963 311.318C163.933 312.068 166.283 312.848 170.018 313.663C173.753 314.478 176.513 315.318 178.303 316.188C180.093 317.058 181.493 318.243 182.503 319.753C183.513 321.258 184.018 323.123 184.018 325.338C184.018 327.348 183.413 329.228 182.203 330.983C180.993 332.738 179.278 334.043 177.068 334.893C174.853 335.748 172.098 336.173 168.793 336.173C163.983 336.173 160.293 335.148 157.718 333.098C155.143 331.048 153.603 328.063 153.103 324.138L153.113 324.148Z" fill="white"/>
<path d="M187.107 322.498C187.107 320.268 187.702 318.103 188.897 316.018C190.092 313.928 191.782 312.333 193.967 311.233C196.152 310.133 198.597 309.583 201.297 309.583C205.462 309.583 208.882 310.833 211.542 313.328C214.207 315.823 215.537 318.978 215.537 322.788C215.537 326.598 214.192 329.818 211.502 332.348C208.812 334.878 205.427 336.138 201.347 336.138C198.822 336.138 196.417 335.613 194.122 334.558C191.832 333.508 190.087 331.963 188.897 329.928C187.702 327.898 187.107 325.418 187.107 322.498ZM194.577 322.858C194.577 325.378 195.227 327.308 196.522 328.648C197.817 329.988 199.417 330.658 201.322 330.658C203.227 330.658 204.817 329.988 206.107 328.648C207.397 327.308 208.037 325.363 208.037 322.808C208.037 320.253 207.392 318.408 206.107 317.068C204.817 315.728 203.222 315.058 201.322 315.058C199.422 315.058 197.822 315.728 196.522 317.068C195.227 318.408 194.577 320.338 194.577 322.858Z" fill="white"/>
<path d="M219.598 335.558V300.488H226.888V335.558H219.598Z" fill="white"/>
<path d="M250.838 335.558V331.753C249.833 333.108 248.518 334.178 246.883 334.958C245.248 335.738 243.523 336.133 241.708 336.133C239.893 336.133 238.198 335.758 236.728 335.008C235.258 334.258 234.193 333.208 233.538 331.848C232.883 330.493 232.553 328.618 232.553 326.228V310.153H239.843V321.828C239.843 325.403 239.978 327.588 240.243 328.393C240.513 329.198 240.998 329.838 241.708 330.308C242.418 330.778 243.318 331.013 244.408 331.013C245.653 331.013 246.768 330.698 247.753 330.068C248.738 329.438 249.413 328.658 249.778 327.723C250.143 326.793 250.323 324.508 250.323 320.868V310.153H257.613V335.558H250.843H250.838Z" fill="white"/>
<path d="M276.142 310.153V315.513H271.162V325.753C271.162 327.823 271.207 329.033 271.307 329.378C271.402 329.723 271.617 330.003 271.957 330.228C272.297 330.453 272.707 330.563 273.192 330.563C273.867 330.563 274.842 330.348 276.122 329.918L276.742 335.133C275.047 335.803 273.127 336.138 270.982 336.138C269.667 336.138 268.482 335.933 267.427 335.528C266.372 335.118 265.597 334.593 265.107 333.948C264.612 333.303 264.272 332.428 264.082 331.328C263.927 330.548 263.847 328.968 263.847 326.593V315.518H260.502V310.158H263.847V305.108L271.162 301.183V310.153H276.142Z" fill="white"/>
<path d="M279.553 306.708V300.488H286.843V306.708H279.553ZM279.553 335.558V310.153H286.843V335.558H279.553Z" fill="white"/>
<path d="M290.978 322.497C290.978 320.267 291.573 318.103 292.768 316.018C293.963 313.928 295.653 312.333 297.838 311.233C300.023 310.133 302.468 309.583 305.168 309.583C309.333 309.583 312.753 310.833 315.413 313.328C318.078 315.823 319.408 318.978 319.408 322.788C319.408 326.598 318.063 329.818 315.373 332.348C312.683 334.878 309.298 336.138 305.218 336.138C302.693 336.138 300.288 335.612 297.993 334.557C295.703 333.507 293.958 331.963 292.768 329.928C291.573 327.898 290.978 325.417 290.978 322.497ZM298.448 322.858C298.448 325.378 299.098 327.308 300.393 328.648C301.688 329.988 303.288 330.658 305.193 330.658C307.098 330.658 308.688 329.988 309.978 328.648C311.268 327.308 311.908 325.362 311.908 322.807C311.908 320.252 311.263 318.408 309.978 317.068C308.688 315.728 307.093 315.057 305.193 315.057C303.293 315.057 301.693 315.728 300.393 317.068C299.098 318.408 298.448 320.338 298.448 322.858Z" fill="white"/>
<path d="M348.523 335.558H341.233V322.593C341.233 319.848 341.078 318.078 340.768 317.273C340.458 316.468 339.948 315.843 339.253 315.393C338.553 314.948 337.708 314.723 336.723 314.723C335.463 314.723 334.328 315.043 333.323 315.678C332.318 316.318 331.633 317.163 331.258 318.213C330.888 319.263 330.703 321.213 330.703 324.053V335.558H323.413V310.153H330.183V313.883C332.588 311.013 335.613 309.578 339.263 309.578C340.873 309.578 342.343 309.843 343.673 310.378C345.003 310.913 346.013 311.593 346.693 312.423C347.378 313.253 347.853 314.193 348.118 315.248C348.383 316.298 348.518 317.808 348.518 319.768V335.558H348.523Z" fill="white"/>
<path d="M351.702 328.313L359.017 327.283C359.327 328.593 359.957 329.583 360.912 330.263C361.862 330.938 363.197 331.278 364.907 331.278C366.792 331.278 368.207 330.958 369.162 330.323C369.802 329.878 370.122 329.278 370.122 328.528C370.122 328.018 369.947 327.598 369.602 327.263C369.237 326.943 368.427 326.648 367.162 326.378C361.282 325.183 357.557 324.093 355.982 323.103C353.802 321.733 352.712 319.828 352.712 317.388C352.712 315.188 353.652 313.338 355.537 311.838C357.422 310.338 360.347 309.593 364.307 309.593C368.267 309.593 370.877 310.158 372.712 311.293C374.547 312.423 375.807 314.098 376.497 316.318L369.622 317.493C369.327 316.503 368.772 315.748 367.947 315.218C367.127 314.693 365.952 314.428 364.432 314.428C362.512 314.428 361.137 314.678 360.307 315.168C359.752 315.518 359.477 315.973 359.477 316.533C359.477 317.013 359.717 317.418 360.202 317.753C360.857 318.198 363.127 318.828 367.012 319.643C370.892 320.458 373.607 321.453 375.142 322.633C376.662 323.828 377.427 325.498 377.427 327.633C377.427 329.963 376.372 331.963 374.262 333.638C372.152 335.313 369.032 336.148 364.897 336.148C361.142 336.148 358.177 335.448 355.987 334.043C353.802 332.638 352.367 330.733 351.692 328.328L351.702 328.313Z" fill="white"/>
<path d="M392.087 310.153H396.132V308.238C396.132 306.103 396.377 304.503 396.872 303.453C397.367 302.403 398.272 301.543 399.597 300.883C400.922 300.223 402.592 299.893 404.617 299.893C406.642 299.893 408.722 300.178 410.712 300.753L409.727 305.443C408.567 305.188 407.452 305.058 406.382 305.058C405.312 305.058 404.572 305.283 404.112 305.743C403.652 306.198 403.422 307.068 403.422 308.363V310.158H408.867V315.443H403.422V335.563H396.132V315.443H392.087V310.158V310.153Z" fill="white"/>
<path d="M409.637 322.498C409.637 320.268 410.232 318.103 411.427 316.018C412.622 313.928 414.312 312.333 416.497 311.233C418.682 310.133 421.127 309.583 423.827 309.583C427.992 309.583 431.412 310.833 434.072 313.328C436.737 315.823 438.067 318.978 438.067 322.788C438.067 326.598 436.722 329.818 434.032 332.348C431.342 334.878 427.957 336.138 423.877 336.138C421.352 336.138 418.947 335.613 416.652 334.558C414.362 333.508 412.617 331.963 411.427 329.928C410.232 327.898 409.637 325.418 409.637 322.498ZM417.107 322.858C417.107 325.378 417.757 327.308 419.052 328.648C420.347 329.988 421.947 330.658 423.852 330.658C425.757 330.658 427.347 329.988 428.637 328.648C429.927 327.308 430.567 325.363 430.567 322.808C430.567 320.253 429.922 318.408 428.637 317.068C427.347 315.728 425.752 315.058 423.852 315.058C421.952 315.058 420.352 315.728 419.052 317.068C417.757 318.408 417.107 320.338 417.107 322.858Z" fill="white"/>
<path d="M449.103 335.558H441.812V310.153H448.582V313.763C449.742 312.058 450.782 310.933 451.707 310.393C452.632 309.853 453.682 309.578 454.857 309.578C456.517 309.578 458.118 310.003 459.658 310.843L457.402 316.703C456.172 315.968 455.033 315.603 453.978 315.603C452.923 315.603 452.093 315.863 451.383 316.378C450.673 316.898 450.117 317.833 449.707 319.188C449.302 320.543 449.098 323.383 449.098 327.703V335.553L449.103 335.558Z" fill="white"/>
<path d="M479.713 317.903L473.098 316.803C473.843 314.348 475.123 312.528 476.938 311.348C478.753 310.168 481.453 309.578 485.033 309.578C488.283 309.578 490.703 309.933 492.293 310.643C493.883 311.353 495.003 312.253 495.653 313.348C496.303 314.438 496.628 316.448 496.628 319.363L496.548 327.208C496.548 329.443 496.663 331.088 496.898 332.148C497.133 333.208 497.568 334.348 498.208 335.558H490.998C490.808 335.113 490.573 334.448 490.298 333.573C490.178 333.173 490.093 332.913 490.038 332.783C488.793 333.898 487.458 334.738 486.043 335.293C484.623 335.848 483.113 336.128 481.503 336.128C478.668 336.128 476.433 335.418 474.798 333.998C473.163 332.578 472.348 330.788 472.348 328.618C472.348 327.183 472.718 325.903 473.463 324.778C474.208 323.653 475.248 322.793 476.588 322.193C477.928 321.593 479.858 321.073 482.383 320.623C485.788 320.033 488.148 319.483 489.463 318.973V318.303C489.463 317.013 489.118 316.088 488.423 315.538C487.733 314.988 486.428 314.713 484.508 314.713C483.213 314.713 482.198 314.948 481.473 315.418C480.748 315.888 480.158 316.713 479.708 317.893L479.713 317.903ZM489.463 323.358C488.528 323.643 487.053 323.988 485.028 324.388C483.003 324.788 481.683 325.178 481.058 325.558C480.108 326.178 479.633 326.968 479.633 327.928C479.633 328.888 480.013 329.683 480.773 330.368C481.533 331.053 482.503 331.398 483.678 331.398C484.993 331.398 486.248 330.998 487.438 330.203C488.318 329.598 488.898 328.858 489.178 327.978C489.368 327.403 489.463 326.313 489.463 324.703V323.363V323.358Z" fill="white"/>
<path d="M513.383 324.148L520.853 323.478C521.303 325.793 522.213 327.488 523.588 328.573C524.963 329.658 526.818 330.198 529.153 330.198C531.628 330.198 533.488 329.718 534.743 328.753C535.998 327.788 536.623 326.658 536.623 325.368C536.623 324.538 536.358 323.833 535.833 323.253C535.303 322.668 534.383 322.163 533.073 321.733C532.173 321.448 530.123 320.938 526.923 320.203C522.808 319.263 519.918 318.103 518.258 316.733C515.923 314.803 514.758 312.448 514.758 309.673C514.758 307.888 515.308 306.218 516.403 304.663C517.503 303.108 519.083 301.923 521.148 301.113C523.213 300.298 525.708 299.893 528.633 299.893C533.403 299.893 536.998 300.858 539.408 302.788C541.818 304.718 543.088 307.293 543.208 310.513L535.533 310.823C535.203 309.023 534.498 307.723 533.418 306.933C532.338 306.143 530.718 305.748 528.553 305.748C526.388 305.748 524.578 306.173 523.313 307.013C522.498 307.553 522.093 308.278 522.093 309.188C522.093 310.018 522.473 310.728 523.233 311.318C524.203 312.068 526.553 312.848 530.288 313.663C534.023 314.478 536.783 315.318 538.573 316.188C540.363 317.058 541.763 318.243 542.773 319.753C543.783 321.258 544.288 323.123 544.288 325.338C544.288 327.348 543.683 329.228 542.473 330.983C541.263 332.738 539.548 334.043 537.338 334.893C535.123 335.748 532.368 336.173 529.063 336.173C524.253 336.173 520.563 335.148 517.988 333.098C515.413 331.048 513.873 328.063 513.373 324.138L513.383 324.148Z" fill="white"/>
<path d="M548.512 310.153H555.232V313.623C557.637 310.928 560.497 309.578 563.817 309.578C565.582 309.578 567.112 309.913 568.407 310.583C569.702 311.253 570.767 312.268 571.597 313.623C572.807 312.268 574.112 311.253 575.512 310.583C576.912 309.913 578.407 309.578 579.997 309.578C582.022 309.578 583.732 309.958 585.132 310.713C586.532 311.468 587.577 312.583 588.272 314.048C588.772 315.133 589.022 316.888 589.022 319.313V335.558H581.732V321.038C581.732 318.518 581.482 316.893 580.982 316.158C580.307 315.198 579.267 314.723 577.867 314.723C576.847 314.723 575.887 315.008 574.987 315.583C574.087 316.158 573.437 316.998 573.042 318.108C572.647 319.213 572.447 320.968 572.447 323.358V335.558H565.157V321.633C565.157 319.158 565.027 317.568 564.767 316.848C564.507 316.133 564.107 315.598 563.562 315.243C563.017 314.893 562.277 314.718 561.347 314.718C560.222 314.718 559.212 314.998 558.312 315.553C557.412 316.113 556.767 316.918 556.377 317.968C555.987 319.018 555.792 320.768 555.792 323.208V335.553H548.502V310.148L548.512 310.153Z" fill="white"/>
<path d="M600.093 317.903L593.478 316.803C594.223 314.348 595.503 312.528 597.318 311.348C599.133 310.168 601.833 309.578 605.413 309.578C608.663 309.578 611.083 309.933 612.673 310.643C614.263 311.353 615.383 312.253 616.033 313.348C616.683 314.438 617.008 316.448 617.008 319.363L616.928 327.208C616.928 329.443 617.043 331.088 617.278 332.148C617.513 333.208 617.948 334.348 618.588 335.558H611.378C611.188 335.113 610.953 334.448 610.678 333.573C610.558 333.173 610.473 332.913 610.418 332.783C609.173 333.898 607.838 334.738 606.423 335.293C605.003 335.848 603.493 336.128 601.883 336.128C599.048 336.128 596.813 335.418 595.178 333.998C593.543 332.578 592.728 330.788 592.728 328.618C592.728 327.183 593.098 325.903 593.843 324.778C594.588 323.653 595.628 322.793 596.968 322.193C598.308 321.593 600.238 321.073 602.763 320.623C606.168 320.033 608.528 319.483 609.843 318.973V318.303C609.843 317.013 609.498 316.088 608.803 315.538C608.113 314.988 606.808 314.713 604.888 314.713C603.593 314.713 602.578 314.948 601.853 315.418C601.128 315.888 600.538 316.713 600.088 317.893L600.093 317.903ZM609.848 323.358C608.913 323.643 607.438 323.988 605.413 324.388C603.388 324.788 602.068 325.178 601.443 325.558C600.493 326.178 600.018 326.968 600.018 327.928C600.018 328.888 600.398 329.683 601.158 330.368C601.918 331.053 602.888 331.398 604.063 331.398C605.378 331.398 606.633 330.998 607.823 330.203C608.703 329.598 609.283 328.858 609.563 327.978C609.753 327.403 609.848 326.313 609.848 324.703V323.363V323.358Z" fill="white"/>
<path d="M629.522 335.558H622.232V310.153H629.002V313.763C630.162 312.058 631.202 310.933 632.127 310.393C633.052 309.853 634.102 309.578 635.277 309.578C636.937 309.578 638.537 310.003 640.077 310.843L637.822 316.703C636.592 315.968 635.452 315.603 634.397 315.603C633.342 315.603 632.512 315.863 631.802 316.378C631.092 316.898 630.537 317.833 630.127 319.188C629.722 320.543 629.517 323.383 629.517 327.703V335.553L629.522 335.558Z" fill="white"/>
<path d="M654.203 310.153V315.513H649.222V325.753C649.222 327.823 649.267 329.033 649.367 329.378C649.462 329.723 649.678 330.003 650.018 330.228C650.358 330.453 650.768 330.563 651.253 330.563C651.928 330.563 652.902 330.348 654.182 329.918L654.802 335.133C653.107 335.803 651.187 336.138 649.042 336.138C647.727 336.138 646.542 335.933 645.487 335.528C644.432 335.118 643.657 334.593 643.167 333.948C642.672 333.303 642.333 332.428 642.143 331.328C641.988 330.548 641.907 328.968 641.907 326.593V315.518H638.562V310.158H641.907V305.108L649.222 301.183V310.153H654.203Z" fill="white"/>
<path d="M673.567 327.473L680.827 328.598C679.892 331.053 678.417 332.923 676.402 334.208C674.387 335.493 671.867 336.133 668.842 336.133C664.052 336.133 660.507 334.688 658.207 331.803C656.392 329.493 655.482 326.573 655.482 323.048C655.482 318.838 656.677 315.543 659.062 313.158C661.447 310.773 664.467 309.583 668.112 309.583C672.212 309.583 675.442 310.833 677.812 313.328C680.182 315.823 681.312 319.648 681.212 324.798H662.952C663.002 326.793 663.592 328.343 664.717 329.453C665.842 330.563 667.242 331.118 668.917 331.118C670.057 331.118 671.017 330.833 671.797 330.258C672.577 329.683 673.162 328.758 673.562 327.483L673.567 327.473ZM673.982 320.678C673.932 318.733 673.387 317.253 672.347 316.238C671.307 315.223 670.047 314.718 668.562 314.718C666.972 314.718 665.657 315.253 664.617 316.323C663.577 317.393 663.067 318.843 663.087 320.678H673.982Z" fill="white"/>
<path d="M692.488 335.558H685.198V310.153H691.968V313.763C693.128 312.058 694.168 310.933 695.093 310.393C696.018 309.853 697.068 309.578 698.243 309.578C699.903 309.578 701.503 310.003 703.043 310.843L700.788 316.703C699.558 315.968 698.418 315.603 697.363 315.603C696.308 315.603 695.478 315.863 694.768 316.378C694.058 316.898 693.503 317.833 693.093 319.188C692.688 320.543 692.483 323.383 692.483 327.703V335.553L692.488 335.558Z" fill="white"/>
<path d="M717.728 300.488H732.928C735.938 300.488 738.183 300.603 739.658 300.833C741.138 301.063 742.458 301.548 743.628 302.278C744.798 303.013 745.768 303.988 746.548 305.208C747.328 306.428 747.713 307.798 747.713 309.313C747.713 310.953 747.233 312.463 746.273 313.833C745.313 315.203 744.013 316.233 742.368 316.918C744.683 317.538 746.468 318.603 747.713 320.098C748.958 321.598 749.583 323.358 749.583 325.383C749.583 326.978 749.183 328.528 748.378 330.038C747.573 331.543 746.473 332.748 745.083 333.653C743.693 334.553 741.973 335.108 739.933 335.318C738.653 335.443 735.568 335.523 730.673 335.558H717.728V300.488ZM725.403 306.328V314.438H730.433C733.423 314.438 735.283 314.398 736.008 314.318C737.323 314.173 738.353 313.758 739.108 313.063C739.858 312.368 740.238 311.458 740.238 310.323C740.238 309.188 739.913 308.358 739.268 307.678C738.618 307.003 737.653 306.588 736.378 306.443C735.618 306.363 733.428 306.323 729.818 306.323H725.408L725.403 306.328ZM725.403 320.273V329.648H732.508C735.273 329.648 737.028 329.578 737.773 329.433C738.913 329.243 739.843 328.778 740.563 328.033C741.283 327.293 741.638 326.298 741.638 325.053C741.638 324.003 741.363 323.108 740.808 322.373C740.253 321.638 739.453 321.108 738.408 320.768C737.363 320.433 735.093 320.268 731.598 320.268H725.398L725.403 320.273Z" fill="white"/>
<path d="M772.497 335.558V331.753C771.492 333.108 770.177 334.178 768.542 334.958C766.907 335.738 765.182 336.133 763.367 336.133C761.552 336.133 759.857 335.758 758.387 335.008C756.917 334.258 755.852 333.208 755.197 331.848C754.542 330.493 754.212 328.618 754.212 326.228V310.153H761.502V321.828C761.502 325.403 761.637 327.588 761.902 328.393C762.172 329.198 762.657 329.838 763.367 330.308C764.077 330.778 764.977 331.013 766.067 331.013C767.312 331.013 768.427 330.698 769.412 330.068C770.397 329.438 771.072 328.658 771.437 327.723C771.802 326.793 771.982 324.508 771.982 320.868V310.153H779.272V335.558H772.502H772.497Z" fill="white"/>
<path d="M782.603 328.313L789.918 327.283C790.228 328.593 790.858 329.583 791.813 330.263C792.763 330.938 794.098 331.278 795.808 331.278C797.693 331.278 799.108 330.958 800.063 330.323C800.703 329.878 801.023 329.278 801.023 328.528C801.023 328.018 800.848 327.598 800.503 327.263C800.138 326.943 799.328 326.648 798.063 326.378C792.183 325.183 788.458 324.093 786.883 323.103C784.703 321.733 783.613 319.828 783.613 317.388C783.613 315.188 784.553 313.338 786.438 311.838C788.323 310.338 791.248 309.593 795.208 309.593C799.168 309.593 801.778 310.158 803.613 311.293C805.448 312.423 806.708 314.098 807.398 316.318L800.523 317.493C800.228 316.503 799.673 315.748 798.848 315.218C798.028 314.693 796.853 314.428 795.333 314.428C793.413 314.428 792.038 314.678 791.208 315.168C790.653 315.518 790.378 315.973 790.378 316.533C790.378 317.013 790.618 317.418 791.103 317.753C791.758 318.198 794.028 318.828 797.913 319.643C801.793 320.458 804.508 321.453 806.043 322.633C807.563 323.828 808.328 325.498 808.328 327.633C808.328 329.963 807.273 331.963 805.163 333.638C803.053 335.313 799.933 336.148 795.798 336.148C792.043 336.148 789.078 335.448 786.888 334.043C784.703 332.638 783.268 330.733 782.593 328.328L782.603 328.313Z" fill="white"/>
<path d="M813.062 306.708V300.488H820.352V306.708H813.062ZM813.062 335.558V310.153H820.352V335.558H813.062Z" fill="white"/>
<path d="M851.233 335.558H843.943V322.593C843.943 319.848 843.788 318.078 843.478 317.273C843.168 316.468 842.658 315.843 841.963 315.393C841.263 314.948 840.418 314.723 839.433 314.723C838.173 314.723 837.038 315.043 836.033 315.678C835.028 316.318 834.343 317.163 833.968 318.213C833.598 319.263 833.413 321.213 833.413 324.053V335.558H826.123V310.153H832.893V313.883C835.298 311.013 838.323 309.578 841.973 309.578C843.583 309.578 845.053 309.843 846.383 310.378C847.713 310.913 848.723 311.593 849.403 312.423C850.088 313.253 850.563 314.193 850.828 315.248C851.093 316.298 851.228 317.808 851.228 319.768V335.558H851.233Z" fill="white"/>
<path d="M872.933 327.473L880.193 328.598C879.258 331.053 877.783 332.923 875.768 334.208C873.753 335.493 871.233 336.133 868.208 336.133C863.418 336.133 859.873 334.688 857.573 331.803C855.758 329.493 854.848 326.573 854.848 323.048C854.848 318.838 856.043 315.543 858.428 313.158C860.813 310.773 863.833 309.583 867.478 309.583C871.578 309.583 874.808 310.833 877.178 313.328C879.548 315.823 880.678 319.648 880.578 324.798H862.318C862.368 326.793 862.958 328.343 864.083 329.453C865.208 330.563 866.608 331.118 868.283 331.118C869.423 331.118 870.383 330.833 871.163 330.258C871.943 329.683 872.528 328.758 872.928 327.483L872.933 327.473ZM873.348 320.678C873.298 318.733 872.753 317.253 871.713 316.238C870.673 315.223 869.413 314.717 867.928 314.717C866.338 314.717 865.023 315.253 863.983 316.323C862.943 317.393 862.433 318.843 862.453 320.678H873.348Z" fill="white"/>
<path d="M882.307 328.313L889.622 327.283C889.932 328.593 890.562 329.583 891.517 330.263C892.467 330.938 893.802 331.278 895.512 331.278C897.397 331.278 898.812 330.958 899.767 330.323C900.407 329.878 900.727 329.278 900.727 328.528C900.727 328.018 900.552 327.598 900.207 327.263C899.842 326.943 899.032 326.648 897.767 326.378C891.887 325.183 888.162 324.093 886.587 323.103C884.407 321.733 883.317 319.828 883.317 317.388C883.317 315.188 884.257 313.338 886.142 311.838C888.027 310.338 890.952 309.593 894.912 309.593C898.872 309.593 901.482 310.158 903.317 311.293C905.152 312.423 906.412 314.098 907.102 316.318L900.227 317.493C899.932 316.503 899.377 315.748 898.552 315.218C897.732 314.693 896.557 314.428 895.037 314.428C893.117 314.428 891.742 314.678 890.912 315.168C890.357 315.518 890.082 315.973 890.082 316.533C890.082 317.013 890.322 317.418 890.807 317.753C891.462 318.198 893.732 318.828 897.617 319.643C901.497 320.458 904.212 321.453 905.747 322.633C907.267 323.828 908.032 325.498 908.032 327.633C908.032 329.963 906.977 331.963 904.867 333.638C902.757 335.313 899.637 336.148 895.502 336.148C891.747 336.148 888.782 335.448 886.592 334.043C884.407 332.638 882.972 330.733 882.297 328.328L882.307 328.313Z" fill="white"/>
<path d="M910.208 328.313L917.523 327.283C917.833 328.593 918.463 329.583 919.418 330.263C920.368 330.938 921.703 331.278 923.413 331.278C925.298 331.278 926.713 330.958 927.668 330.323C928.308 329.878 928.628 329.278 928.628 328.528C928.628 328.018 928.453 327.598 928.108 327.263C927.743 326.943 926.933 326.648 925.668 326.378C919.788 325.183 916.063 324.093 914.488 323.103C912.308 321.733 911.218 319.828 911.218 317.388C911.218 315.188 912.158 313.338 914.043 311.838C915.928 310.338 918.853 309.593 922.813 309.593C926.773 309.593 929.383 310.158 931.218 311.293C933.053 312.423 934.313 314.098 935.003 316.318L928.128 317.493C927.833 316.503 927.278 315.748 926.453 315.218C925.633 314.693 924.458 314.428 922.938 314.428C921.018 314.428 919.643 314.678 918.813 315.168C918.258 315.518 917.983 315.973 917.983 316.533C917.983 317.013 918.223 317.418 918.708 317.753C919.363 318.198 921.633 318.828 925.518 319.643C929.398 320.458 932.113 321.453 933.648 322.633C935.168 323.828 935.933 325.498 935.933 327.633C935.933 329.963 934.878 331.963 932.768 333.638C930.658 335.313 927.538 336.148 923.403 336.148C919.648 336.148 916.683 335.448 914.493 334.043C912.308 332.638 910.873 330.733 910.198 328.328L910.208 328.313Z" fill="white"/>
<path d="M140.313 319.053C140.313 324.818 135.808 329.513 130.268 329.513H104.383C98.8427 329.513 94.3477 324.823 94.3477 319.053C94.3477 313.283 98.8477 308.593 104.383 308.593H130.268C135.808 308.593 140.313 313.283 140.313 319.053Z" fill="white"/>
<path d="M1018.55 109.923V123.383C1018.55 129.288 1014.05 134.098 1008.51 134.098C1002.98 134.098 998.478 129.293 998.478 123.383V109.923C998.478 104.018 1002.98 99.2075 1008.51 99.2075C1014.05 99.2075 1018.55 104.013 1018.55 109.923Z" fill="white"/>
<path d="M1018.55 58.4025V75.9225C1018.55 81.8275 1014.05 86.6375 1008.51 86.6375C1002.98 86.6375 998.478 81.8325 998.478 75.9225V58.4025C998.478 38.4175 984.173 22.1575 966.583 22.1575H88.7228C76.4878 22.1575 66.5278 33.1775 66.5278 46.7175V81.7725C66.5278 87.6775 62.0228 92.4875 56.4928 92.4875C50.9628 92.4875 46.4478 87.6825 46.4478 81.7725V46.7175C46.4478 21.3525 65.4078 0.727539 88.7228 0.727539H966.583C995.238 0.727539 1018.55 26.6025 1018.55 58.4025H1018.55Z" fill="white"/>
<path d="M1018.55 180.528V270.213C1018.55 305.033 993.688 333.388 963.068 333.538H962.823C957.398 333.398 953.033 328.573 953.033 322.663C953.033 316.753 957.398 311.938 962.823 311.798V311.788C982.483 311.788 998.478 293.133 998.478 270.208V180.523C998.478 174.528 1002.98 169.653 1008.51 169.653C1014.05 169.653 1018.55 174.528 1018.55 180.523V180.528Z" fill="white"/>
<path d="M119.943 239.048C119.898 260.168 111.113 277.142 93.8376 289.482C86.1876 294.947 77.2076 298.347 67.1426 299.562C66.8076 299.607 66.4226 299.692 66.0076 299.782C65.7776 299.837 65.5426 299.887 65.3126 299.932L65.0576 299.977H55.0326L54.7676 299.923C53.6326 299.693 52.4976 299.483 51.3626 299.273C48.8426 298.798 46.2376 298.312 43.6776 297.597C31.3976 294.172 21.0876 287.243 13.0426 276.988C4.45256 266.048 0.132558 253.052 0.182558 238.377C0.242558 223.392 0.237558 208.367 0.227558 195.452V192.812H3.75756V199.732H11.6826V192.812H17.2026V195.452C17.2126 210.672 17.2576 226.157 17.3076 241.137C17.3176 243.892 17.6926 246.857 18.3976 249.727C23.2826 269.572 39.9926 282.907 59.9876 282.907C71.7426 282.897 81.9176 278.707 90.2376 270.432C98.4226 262.287 102.658 252.562 102.818 241.502C102.958 231.837 102.933 221.992 102.898 212.477C102.878 208.262 102.873 204.042 102.873 199.827V197.188H102.928L102.938 192.812H108.933V199.732H116.858V192.812H119.973V195.452C119.973 209.742 119.983 224.513 119.948 239.048H119.943Z" fill="white"/>
<path d="M116.853 172.893V199.728H108.928V172.893C108.928 158.413 103.833 144.818 94.5678 134.623C85.3878 124.518 73.2178 118.953 60.3228 118.953C33.5078 118.953 11.6828 143.153 11.6828 172.893V199.728H3.75781V172.893C3.75781 138.778 29.1278 111.028 60.3228 111.028C75.4728 111.028 89.7178 117.518 100.433 129.288C111.023 140.953 116.853 156.438 116.853 172.893Z" fill="white"/>
<path d="M888.982 138.413C888.962 139.108 888.427 139.628 887.617 139.628C884.702 139.648 881.782 139.628 878.847 139.628H878.127C878.742 140.448 879.262 141.178 879.827 141.873C879.917 141.978 880.162 142.013 880.327 142.013C881.562 142.033 882.782 142.013 883.997 142.033C884.787 142.033 885.362 142.543 885.362 143.238C885.352 143.908 884.817 144.428 884.052 144.443C882.502 144.463 880.962 144.443 879.412 144.453C878.877 144.453 878.497 144.208 878.172 143.783C877.272 142.548 876.342 141.343 875.442 140.103C875.187 139.733 874.897 139.618 874.467 139.618C872.757 139.628 871.062 139.643 869.342 139.628C868.737 139.628 868.117 139.628 867.512 139.618C867.117 139.608 866.667 139.423 866.342 139.178C865.962 138.888 865.927 138.403 866.132 137.938C866.362 137.408 866.782 137.183 867.337 137.183C867.982 137.183 868.612 137.173 869.257 137.173C870.207 137.173 871.187 137.173 872.152 137.183C872.512 137.183 872.757 137.093 872.987 136.768C873.892 135.518 874.847 134.303 875.752 133.063C876.097 132.598 876.507 132.348 877.092 132.358C878.582 132.378 880.067 132.348 881.562 132.358C882.362 132.378 882.847 132.788 882.907 133.448C882.962 134.203 882.467 134.768 881.702 134.768C880.462 134.793 879.217 134.793 877.962 134.768C877.637 134.768 877.427 134.873 877.232 135.148C876.772 135.798 876.272 136.443 875.717 137.173H887.637C888.427 137.208 888.982 137.718 888.982 138.413Z" fill="white"/>
<path d="M901.522 153.198V154.623H902.717C902.707 154.218 902.717 153.813 902.717 153.408C902.717 153.353 902.742 153.303 902.807 153.198H901.522Z" fill="white"/>
<path d="M906.238 154.308L907.128 152.783L908.948 149.673H897.998V158.143H906.318L906.238 154.623V154.308Z" fill="white"/>
<path d="M888.982 138.413C888.962 139.108 888.427 139.628 887.617 139.628C884.702 139.648 881.782 139.628 878.847 139.628H878.127C878.742 140.448 879.262 141.178 879.827 141.873C879.917 141.978 880.162 142.013 880.327 142.013C881.562 142.033 882.782 142.013 883.997 142.033C884.787 142.033 885.362 142.543 885.362 143.238C885.352 143.908 884.817 144.428 884.052 144.443C882.502 144.463 880.962 144.443 879.412 144.453C878.877 144.453 878.497 144.208 878.172 143.783C877.272 142.548 876.342 141.343 875.442 140.103C875.187 139.733 874.897 139.618 874.467 139.618C872.757 139.628 871.062 139.643 869.342 139.628C868.737 139.628 868.117 139.628 867.512 139.618C867.117 139.608 866.667 139.423 866.342 139.178C865.962 138.888 865.927 138.403 866.132 137.938C866.362 137.408 866.782 137.183 867.337 137.183C867.982 137.183 868.612 137.173 869.257 137.173C870.207 137.173 871.187 137.173 872.152 137.183C872.512 137.183 872.757 137.093 872.987 136.768C873.892 135.518 874.847 134.303 875.752 133.063C876.097 132.598 876.507 132.348 877.092 132.358C878.582 132.378 880.067 132.348 881.562 132.358C882.362 132.378 882.847 132.788 882.907 133.448C882.962 134.203 882.467 134.768 881.702 134.768C880.462 134.793 879.217 134.793 877.962 134.768C877.637 134.768 877.427 134.873 877.232 135.148C876.772 135.798 876.272 136.443 875.717 137.173H887.637C888.427 137.208 888.982 137.718 888.982 138.413Z" fill="white"/>
<path d="M898.652 125.153V148.798H899.567V150.223H900.992L900.972 152.783L900.962 154.623H922.667V121.743H900.877V125.148H898.652V125.153ZM914.097 126.553H916.877V131.773H914.097V126.553ZM914.097 144.598H916.877V149.818H914.097V144.598Z" fill="white"/>
<path d="M923.547 198.973C920.757 194.798 917.157 191.303 913.027 188.663C908.897 186.023 904.242 184.233 899.347 183.488C896.937 183.118 894.498 182.923 892.083 182.913C866.368 182.888 840.658 182.913 814.953 182.888C806.988 182.878 799.768 178.123 797.003 171.058C795.068 166.118 795.548 160.623 798.333 155.988C801.343 150.963 806.512 147.668 812.487 146.963C813.562 146.838 814.712 146.823 815.717 146.823C820.067 146.813 824.418 146.813 828.763 146.813C834.723 146.813 840.692 146.803 846.662 146.793C850.067 158.148 860.817 166.788 872.992 167.683C877.112 167.993 881.242 167.973 885.227 167.958C886.907 167.958 888.597 167.948 890.282 167.968C893.022 167.993 895.778 167.988 898.128 167.968C903.323 167.923 907.003 164.348 907.088 159.263C907.098 158.223 907.107 157.178 907.107 156.128L907.117 154.633H902.717C902.707 155.813 902.708 156.983 902.698 158.153H897.997V149.683H900.737V153.203H901.523V121.748H907.052V120.753C907.052 120.093 907.072 119.528 907.112 119.008C907.427 114.613 905.457 111.188 901.547 109.358L900.657 108.943H872.152L871.273 109.338C858.938 111.558 850.683 118.503 846.713 130.028C836.608 130.028 826.507 130.028 816.407 130.048C814.842 130.048 813.152 130.073 811.467 130.293C796.402 132.073 786.053 139.908 780.698 153.533C780.003 155.303 779.623 157.028 779.263 158.693C779.123 159.363 778.983 160.023 778.812 160.683L778.672 161.213V168.608L778.802 169.138C778.942 169.703 779.068 170.263 779.188 170.838C779.498 172.273 779.823 173.753 780.378 175.268C785.298 188.888 795.283 196.963 810.062 199.258C812.342 199.608 814.658 199.608 816.508 199.608C836.843 199.628 857.188 199.628 877.518 199.628H892.388C902.238 199.638 909.873 205.493 911.838 214.543C912.763 218.793 911.828 223.293 909.213 227.218C906.388 231.453 901.947 234.393 897.052 235.293C895.377 235.593 893.697 235.753 892.062 235.753C861.558 235.778 825.383 235.788 788.383 235.733H788.328C782.843 235.733 780.282 238.693 779.092 241.173L778.667 242.073V246.158L779.092 247.058C780.807 250.668 783.978 252.498 788.523 252.498C818.888 252.453 849.777 252.453 879.652 252.453H892.497C910.017 252.453 924.473 241.503 928.463 225.198C930.613 216.413 928.812 206.858 923.552 198.983L923.547 198.973ZM862.557 137.723C863.287 130.523 868.977 125.663 876.722 125.643C878.507 125.633 880.307 125.633 882.102 125.633C883.897 125.633 885.692 125.633 887.492 125.643H889.828V151.103C889.203 151.103 888.588 151.113 887.963 151.123C883.348 151.168 879.002 151.213 874.607 151.028C871.307 150.898 868.038 149.243 865.648 146.483C863.633 144.158 862.523 141.358 862.523 138.673C862.523 138.358 862.533 138.038 862.568 137.723H862.557Z" fill="white"/>
</g>
<defs>
<clipPath id="clip0_56_467">
<rect width="1018.36" height="335.455" fill="white" transform="translate(0.182617 0.727539)"/>
</clipPath>
</defs>
</svg>
